<svg width="1940" height="343" viewBox="0 0 1940 343" fill="none" xmlns="http://www.w3.org/2000/svg">
<g clip-path="url(#clip0_443_857)">
<rect width="1940" height="343" fill="white"/>
<rect x="-3.8999" width="80.3148" height="20.5514" rx="3" fill="#E14646" fill-opacity="0.3"/>
<path d="M3.75297 14V3.81818H7.19332C7.98877 3.81818 8.64171 3.95407 9.15212 4.22585C9.66254 4.49432 10.0404 4.86387 10.2856 5.33452C10.5309 5.80516 10.6535 6.34044 10.6535 6.94034C10.6535 7.54025 10.5309 8.07221 10.2856 8.53622C10.0404 9.00024 9.6642 9.36482 9.15709 9.62997C8.64999 9.89181 8.00203 10.0227 7.2132 10.0227H4.42911V8.90909H7.17343C7.71699 8.90909 8.15449 8.82955 8.48593 8.67045C8.82068 8.51136 9.06263 8.28598 9.21178 7.99432C9.36424 7.69934 9.44047 7.34801 9.44047 6.94034C9.44047 6.53267 9.36424 6.17637 9.21178 5.87145C9.05932 5.56652 8.81571 5.3312 8.48096 5.16548C8.1462 4.99645 7.70373 4.91193 7.15354 4.91193H4.98593V14H3.75297ZM8.54559 9.42614L11.0513 14H9.61945L7.15354 9.42614H8.54559ZM15.6686 14.1591C14.9328 14.1591 14.2981 13.9967 13.7645 13.6719C13.2342 13.3438 12.8249 12.8864 12.5365 12.2997C12.2515 11.7098 12.109 11.0237 12.109 10.2415C12.109 9.45928 12.2515 8.76989 12.5365 8.1733C12.8249 7.57339 13.2259 7.10606 13.7397 6.77131C14.2567 6.43324 14.8599 6.2642 15.5493 6.2642C15.947 6.2642 16.3398 6.33049 16.7276 6.46307C17.1154 6.59564 17.4684 6.81108 17.7865 7.10938C18.1047 7.40436 18.3583 7.79545 18.5472 8.28267C18.7361 8.76989 18.8306 9.36979 18.8306 10.0824V10.5795H12.9442V9.56534H17.6374C17.6374 9.13447 17.5512 8.75 17.3789 8.41193C17.2098 8.07386 16.9679 7.80705 16.653 7.61151C16.3415 7.41596 15.9736 7.31818 15.5493 7.31818C15.082 7.31818 14.6776 7.43419 14.3362 7.66619C13.9982 7.89489 13.738 8.19318 13.5557 8.56108C13.3734 8.92898 13.2823 9.32339 13.2823 9.74432V10.4205C13.2823 10.9972 13.3817 11.486 13.5806 11.8871C13.7827 12.2848 14.0628 12.5881 14.4208 12.7969C14.7787 13.0024 15.1947 13.1051 15.6686 13.1051C15.9769 13.1051 16.2553 13.062 16.5039 12.9759C16.7558 12.8864 16.9728 12.7538 17.1551 12.5781C17.3374 12.3991 17.4783 12.1771 17.5777 11.9119L18.7112 12.2301C18.5919 12.6146 18.3914 12.9527 18.1097 13.2443C17.828 13.5327 17.48 13.758 17.0657 13.9205C16.6514 14.0795 16.1857 14.1591 15.6686 14.1591ZM23.4989 14.1591C22.8625 14.1591 22.3007 13.9983 21.8135 13.6768C21.3263 13.352 20.9451 12.8946 20.6701 12.3047C20.395 11.7114 20.2574 11.0104 20.2574 10.2017C20.2574 9.39962 20.395 8.7036 20.6701 8.11364C20.9451 7.52367 21.328 7.06794 21.8185 6.74645C22.309 6.42495 22.8758 6.2642 23.5188 6.2642C24.0159 6.2642 24.4087 6.34706 24.697 6.51278C24.9887 6.67519 25.2108 6.8608 25.3632 7.0696C25.519 7.27509 25.64 7.44413 25.7262 7.5767H25.8256V3.81818H26.9989V14H25.8654V12.8267H25.7262C25.64 12.9659 25.5174 13.1416 25.3583 13.3537C25.1992 13.5625 24.9721 13.7498 24.6772 13.9155C24.3822 14.0779 23.9894 14.1591 23.4989 14.1591ZM23.658 13.1051C24.1286 13.1051 24.5264 12.9825 24.8512 12.7372C25.176 12.4886 25.4229 12.1456 25.5919 11.7081C25.761 11.2673 25.8455 10.7585 25.8455 10.1818C25.8455 9.61174 25.7626 9.11293 25.5969 8.68537C25.4312 8.2545 25.1859 7.91974 24.8611 7.68111C24.5363 7.43916 24.1353 7.31818 23.658 7.31818C23.1608 7.31818 22.7465 7.44579 22.4151 7.70099C22.087 7.95289 21.84 8.29593 21.6743 8.73011C21.5119 9.16098 21.4307 9.64489 21.4307 10.1818C21.4307 10.7254 21.5136 11.2192 21.6793 11.6634C21.8483 12.1042 22.0969 12.4555 22.425 12.7173C22.7565 12.9759 23.1675 13.1051 23.658 13.1051ZM36.5692 6.36364V7.35795H32.6118V6.36364H36.5692ZM33.7652 4.53409H34.9385V11.8125C34.9385 12.1439 34.9866 12.3925 35.0827 12.5582C35.1821 12.7206 35.3081 12.83 35.4605 12.8864C35.6163 12.9394 35.7804 12.9659 35.9527 12.9659C36.082 12.9659 36.188 12.9593 36.2709 12.946C36.3538 12.9295 36.4201 12.9162 36.4698 12.9062L36.7084 13.9602C36.6289 13.9901 36.5178 14.0199 36.3753 14.0497C36.2328 14.0829 36.0522 14.0994 35.8334 14.0994C35.502 14.0994 35.1772 14.0282 34.859 13.8857C34.5441 13.7431 34.2823 13.526 34.0735 13.2344C33.868 12.9427 33.7652 12.5748 33.7652 12.1307V4.53409ZM40.5813 14.179C40.0974 14.179 39.6582 14.0878 39.2638 13.9055C38.8694 13.7199 38.5562 13.4531 38.3242 13.1051C38.0922 12.7538 37.9762 12.3295 37.9762 11.8324C37.9762 11.3949 38.0623 11.0402 38.2347 10.7685C38.407 10.4934 38.6374 10.2779 38.9257 10.1222C39.2141 9.96638 39.5323 9.85038 39.8803 9.77415C40.2316 9.6946 40.5846 9.63163 40.9392 9.58523C41.4032 9.52557 41.7794 9.48082 42.0678 9.45099C42.3594 9.41785 42.5716 9.36316 42.7041 9.28693C42.84 9.2107 42.908 9.07812 42.908 8.8892V8.84943C42.908 8.3589 42.7737 7.97775 42.5053 7.70597C42.2401 7.43419 41.8374 7.2983 41.2972 7.2983C40.7371 7.2983 40.2979 7.42093 39.9797 7.66619C39.6615 7.91146 39.4378 8.1733 39.3085 8.4517L38.1949 8.05398C38.3938 7.58996 38.6589 7.22869 38.9904 6.97017C39.3251 6.70833 39.6897 6.52604 40.0841 6.4233C40.4818 6.31723 40.8729 6.2642 41.2574 6.2642C41.5027 6.2642 41.7844 6.29403 42.1026 6.35369C42.4241 6.41004 42.734 6.5277 43.0323 6.70668C43.3339 6.88565 43.5841 7.15578 43.783 7.51705C43.9818 7.87831 44.0813 8.36222 44.0813 8.96875V14H42.908V12.9659H42.8483C42.7688 13.1316 42.6362 13.3089 42.4506 13.4979C42.265 13.6868 42.0181 13.8475 41.7098 13.9801C41.4016 14.1127 41.0254 14.179 40.5813 14.179ZM40.7603 13.125C41.2243 13.125 41.6154 13.0339 41.9335 12.8516C42.255 12.6693 42.497 12.4339 42.6594 12.1456C42.8251 11.8572 42.908 11.554 42.908 11.2358V10.1619C42.8583 10.2216 42.7489 10.2763 42.5799 10.326C42.4141 10.3724 42.2219 10.4138 42.0032 10.4503C41.7877 10.4834 41.5773 10.5133 41.3718 10.5398C41.1696 10.563 41.0055 10.5829 40.8796 10.5994C40.5746 10.6392 40.2896 10.7038 40.0245 10.7933C39.7626 10.8795 39.5505 11.0104 39.3881 11.1861C39.229 11.3584 39.1495 11.5937 39.1495 11.892C39.1495 12.2997 39.3003 12.608 39.6019 12.8168C39.9068 13.0223 40.2929 13.125 40.7603 13.125ZM49.3052 17.0227C48.7384 17.0227 48.2512 16.9498 47.8435 16.804C47.4359 16.6615 47.0961 16.4725 46.8244 16.2372C46.5559 16.0052 46.3421 15.7566 46.183 15.4915L47.1177 14.8352C47.2237 14.9744 47.358 15.1335 47.5204 15.3125C47.6828 15.4948 47.9048 15.6522 48.1866 15.7848C48.4716 15.9207 48.8445 15.9886 49.3052 15.9886C49.9217 15.9886 50.4304 15.8395 50.8315 15.5412C51.2325 15.2429 51.433 14.7756 51.433 14.1392V12.5881H51.3336C51.2474 12.7273 51.1248 12.8996 50.9657 13.1051C50.8099 13.3073 50.5845 13.4879 50.2896 13.647C49.9979 13.8028 49.6035 13.8807 49.1063 13.8807C48.4898 13.8807 47.9363 13.7348 47.4458 13.4432C46.9586 13.1515 46.5725 12.7273 46.2874 12.1705C46.0057 11.6136 45.8648 10.9375 45.8648 10.142C45.8648 9.35985 46.0024 8.67874 46.2775 8.09872C46.5526 7.51539 46.9354 7.06463 47.4259 6.74645C47.9164 6.42495 48.4832 6.2642 49.1262 6.2642C49.6234 6.2642 50.0178 6.34706 50.3094 6.51278C50.6044 6.67519 50.8298 6.8608 50.9856 7.0696C51.1447 7.27509 51.2673 7.44413 51.3535 7.5767H51.4728V6.36364H52.6063V14.2188C52.6063 14.875 52.4572 15.4086 52.1589 15.8196C51.8639 16.2339 51.4662 16.5372 50.9657 16.7294C50.4685 16.925 49.915 17.0227 49.3052 17.0227ZM49.2654 12.8267C49.736 12.8267 50.1338 12.719 50.4586 12.5036C50.7834 12.2881 51.0303 11.9782 51.1994 11.5739C51.3684 11.1695 51.4529 10.6856 51.4529 10.1222C51.4529 9.57197 51.37 9.08641 51.2043 8.66548C51.0386 8.24455 50.7933 7.91477 50.4685 7.67614C50.1437 7.4375 49.7427 7.31818 49.2654 7.31818C48.7682 7.31818 48.3539 7.44413 48.0225 7.69602C47.6944 7.94792 47.4475 8.28598 47.2817 8.71023C47.1193 9.13447 47.0381 9.60511 47.0381 10.1222C47.0381 10.6525 47.121 11.1214 47.2867 11.5291C47.4557 11.9335 47.7043 12.2517 48.0324 12.4837C48.3639 12.7124 48.7749 12.8267 49.2654 12.8267Z" fill="#37352F"/>
<path d="M-4 0H1944V343H-4V0Z" fill="#CCFFE2"/>
<path fill-rule="evenodd" clip-rule="evenodd" d="M1943.55 237.166V343H475.379C535.532 293.689 599.915 248.214 668.419 207.174C1082.63 -40.9782 1540.57 29.3675 1943.55 237.166Z" fill="#FFECEA"/>
<path fill-rule="evenodd" clip-rule="evenodd" d="M1373.87 169.08C1373.93 113.585 1408.92 58.5252 1467.21 46.2886C1518.96 35.4249 1554.8 83.747 1584.16 124.933C1611.76 163.654 1640.07 210.579 1611.16 248.223C1579.64 289.281 1518.29 294.69 1466.96 277.572C1415.17 260.296 1373.82 220.063 1373.87 169.08Z" fill="#0018A4"/>
<path fill-rule="evenodd" clip-rule="evenodd" d="M135.668 64.0355C166.613 63.0843 197.932 81.711 205.784 114.146C212.755 142.942 186.443 163.876 163.996 181.054C142.892 197.204 117.226 213.893 95.7253 198.369C72.2753 181.438 68.1762 147.165 76.8156 118.11C85.5343 88.7876 107.239 64.9093 135.668 64.0355Z" fill="white"/>
<rect x="-4" width="1944" height="100" fill="#0018A4"/>
<path d="M-18.8716 62H-19.5276L-25.4316 46.871V62H-26.0876V39.532H-31.0076V62H-31.6636V33.3H-22.5206C-17.2726 33.3 -13.0906 37.482 -13.0906 42.73C-13.0906 46.912 -15.1816 49.372 -17.6006 50.889L-13.2956 62H-13.9516L-18.1336 51.217C-19.3226 51.914 -21.0036 52.529 -22.3976 52.939L-18.8716 62ZM-19.7736 45.313L-17.8466 50.274C-15.6326 48.88 -13.7466 46.584 -13.7466 42.73C-13.7466 37.81 -17.6006 33.956 -22.5206 33.956H-25.4316V38.876H-22.5206C-20.3886 38.876 -18.6666 40.598 -18.6666 42.73C-18.6666 43.714 -19.0356 44.575 -19.7736 45.313ZM-25.4316 39.532V46.871L-23.8736 46.543C-20.6756 45.846 -19.3226 44.493 -19.3226 42.73C-19.3226 40.926 -20.7166 39.532 -22.5206 39.532H-25.4316ZM-31.0076 33.956V38.876H-26.0876V33.956H-31.0076ZM-18.3796 50.602L-20.2656 45.764C-21.4956 46.707 -22.9306 47.035 -24.5296 47.363L-22.6436 52.283C-21.4136 51.955 -19.4046 51.217 -18.3796 50.602ZM-11.6053 51.135C-11.6053 44.862 -6.52131 39.778 -0.248308 39.778C4.75369 39.778 8.97669 42.976 10.4937 47.486L-2.83131 55.563C-2.05231 56.014 -1.19131 56.26 -0.248308 56.26C1.80169 56.26 3.56469 55.03 4.38469 53.308L4.99969 53.595C4.09769 55.563 2.08869 56.916 -0.248308 56.916C-1.43731 56.916 -2.54431 56.547 -3.44631 55.932L-7.87431 58.638C-5.94731 60.606 -3.24131 61.836 -0.248308 61.836C4.01569 61.836 7.74669 59.294 9.46869 55.645L10.0427 55.932C8.23869 59.827 4.30269 62.492 -0.248308 62.492C-6.52131 62.492 -11.6053 57.408 -11.6053 51.135ZM-10.9493 51.135C-10.9493 52.324 -10.7443 53.431 -10.4163 54.497L-5.98831 51.791C-6.02931 51.586 -6.02931 51.34 -6.02931 51.135C-6.02931 47.937 -3.44631 45.354 -0.248308 45.354C0.940692 45.354 2.08869 45.723 2.99069 46.338L7.37769 43.673C5.45069 41.664 2.74469 40.434 -0.248308 40.434C-6.15231 40.434 -10.9493 45.231 -10.9493 51.135ZM-10.1703 55.112C-9.71931 56.219 -9.10431 57.244 -8.32531 58.146L-4.02031 55.522C-4.92231 54.743 -5.57831 53.677 -5.86531 52.488L-10.1703 55.112ZM-5.37331 51.135V51.422L2.37569 46.707C1.59669 46.256 0.694692 46.01 -0.248308 46.01C-3.07731 46.01 -5.37331 48.306 -5.37331 51.135ZM-5.29131 52.16C-5.04531 53.349 -4.34831 54.415 -3.40531 55.153L4.79469 50.151C4.54869 48.962 3.89269 47.896 2.94969 47.117L-5.29131 52.16ZM3.56469 46.789C4.46669 47.568 5.12269 48.593 5.36869 49.823L9.71469 47.158C9.26369 46.051 8.60769 45.067 7.86969 44.165L3.56469 46.789ZM28.395 42.115V60.155C31.142 58.474 33.315 55.071 33.315 51.135C33.315 47.199 31.142 43.796 28.395 42.115ZM22.614 39.778C24.459 39.778 26.181 40.229 27.739 41.008V40.27H28.395V41.377C30.691 42.648 32.454 44.944 33.315 47.322V40.27H33.971V62H33.315V54.907C32.495 57.244 30.691 59.663 28.395 60.934V62H27.739V61.262C26.181 62.041 24.459 62.492 22.614 62.492C16.341 62.492 11.257 57.408 11.257 51.135C11.257 44.862 16.341 39.778 22.614 39.778ZM22.614 61.836C24.459 61.836 26.222 61.385 27.739 60.565V53.841C26.755 55.645 24.828 56.916 22.614 56.916C19.416 56.916 16.833 54.333 16.833 51.135C16.833 47.937 19.416 45.354 22.614 45.354C24.828 45.354 26.755 46.625 27.739 48.47V41.746C26.222 40.926 24.459 40.434 22.614 40.434C16.71 40.434 11.913 45.231 11.913 51.135C11.913 57.039 16.71 61.836 22.614 61.836ZM22.614 56.26C25.484 56.26 27.739 53.964 27.739 51.135C27.739 48.306 25.484 46.01 22.614 46.01C19.785 46.01 17.489 48.306 17.489 51.135C17.489 53.964 19.785 56.26 22.614 56.26ZM49.017 45.846V46.502H47.828C45.327 46.502 43.195 48.634 43.195 51.135C43.195 53.636 45.327 55.768 47.828 55.768H49.017V56.424H47.828C44.958 56.424 42.539 54.005 42.539 51.135C42.539 48.265 44.958 45.846 47.828 45.846H49.017ZM49.017 40.926H47.828C42.211 40.926 37.619 45.518 37.619 51.135C37.619 56.752 42.211 61.344 47.828 61.344H49.017V62H47.828C41.842 62 36.963 57.121 36.963 51.135C36.963 45.149 41.842 40.27 47.828 40.27H49.017V40.926ZM54.536 40.926H51.297V40.27H54.536V33.3H55.192V40.27H60.112V33.3H60.768V40.27H64.007V40.926H60.768V45.846H64.007V46.502H60.768V62H60.112V46.502H55.192V62H54.536V46.502H51.297V45.846H54.536V40.926ZM60.112 40.926H55.192V45.846H60.112V40.926ZM88.9136 62H88.2576L82.3536 46.871V62H81.6976V39.532H76.7776V62H76.1216V33.3H85.2646C90.5126 33.3 94.6946 37.482 94.6946 42.73C94.6946 46.912 92.6036 49.372 90.1846 50.889L94.4896 62H93.8336L89.6516 51.217C88.4626 51.914 86.7816 52.529 85.3876 52.939L88.9136 62ZM88.0116 45.313L89.9386 50.274C92.1526 48.88 94.0386 46.584 94.0386 42.73C94.0386 37.81 90.1846 33.956 85.2646 33.956H82.3536V38.876H85.2646C87.3966 38.876 89.1186 40.598 89.1186 42.73C89.1186 43.714 88.7496 44.575 88.0116 45.313ZM82.3536 39.532V46.871L83.9116 46.543C87.1096 45.846 88.4626 44.493 88.4626 42.73C88.4626 40.926 87.0686 39.532 85.2646 39.532H82.3536ZM76.7776 33.956V38.876H81.6976V33.956H76.7776ZM89.4056 50.602L87.5196 45.764C86.2896 46.707 84.8546 47.035 83.2556 47.363L85.1416 52.283C86.3716 51.955 88.3806 51.217 89.4056 50.602ZM107.537 62.492C101.264 62.492 96.1798 57.408 96.1798 51.135C96.1798 44.862 101.264 39.778 107.537 39.778C113.81 39.778 118.894 44.862 118.894 51.135C118.894 57.408 113.81 62.492 107.537 62.492ZM107.537 61.836C113.441 61.836 118.238 57.039 118.238 51.135C118.238 45.231 113.441 40.434 107.537 40.434C101.633 40.434 96.8358 45.231 96.8358 51.135C96.8358 57.039 101.633 61.836 107.537 61.836ZM107.537 56.916C104.339 56.916 101.756 54.333 101.756 51.135C101.756 47.937 104.339 45.354 107.537 45.354C110.735 45.354 113.318 47.937 113.318 51.135C113.318 54.333 110.735 56.916 107.537 56.916ZM107.537 56.26C110.366 56.26 112.662 53.964 112.662 51.135C112.662 48.306 110.366 46.01 107.537 46.01C104.708 46.01 102.412 48.306 102.412 51.135C102.412 53.964 104.708 56.26 107.537 56.26ZM141.35 40.27V62H140.694V55.809C139.792 58.146 138.029 60.073 135.774 61.18V62H135.118V61.508C133.97 61.959 132.74 62.205 131.428 62.205C125.975 62.205 121.506 57.736 121.506 52.283V40.27H122.162V52.283C122.162 57.367 126.344 61.549 131.428 61.549C132.74 61.549 133.97 61.262 135.118 60.77V54.579C134.339 55.809 132.986 56.629 131.428 56.629C129.05 56.629 127.082 54.661 127.082 52.283V40.27H127.738V52.283C127.738 54.292 129.419 55.973 131.428 55.973C133.437 55.973 135.118 54.292 135.118 52.283V40.27H135.774V60.442C138.685 58.884 140.694 55.809 140.694 52.283V40.27H141.35ZM147.587 40.926H144.348V40.27H147.587V33.3H148.243V40.27H153.163V33.3H153.819V40.27H157.058V40.926H153.819V45.846H157.058V46.502H153.819V62H153.163V46.502H148.243V62H147.587V46.502H144.348V45.846H147.587V40.926ZM153.163 40.926H148.243V45.846H153.163V40.926ZM158.401 51.135C158.401 44.862 163.485 39.778 169.758 39.778C174.76 39.778 178.983 42.976 180.5 47.486L167.175 55.563C167.954 56.014 168.815 56.26 169.758 56.26C171.808 56.26 173.571 55.03 174.391 53.308L175.006 53.595C174.104 55.563 172.095 56.916 169.758 56.916C168.569 56.916 167.462 56.547 166.56 55.932L162.132 58.638C164.059 60.606 166.765 61.836 169.758 61.836C174.022 61.836 177.753 59.294 179.475 55.645L180.049 55.932C178.245 59.827 174.309 62.492 169.758 62.492C163.485 62.492 158.401 57.408 158.401 51.135ZM159.057 51.135C159.057 52.324 159.262 53.431 159.59 54.497L164.018 51.791C163.977 51.586 163.977 51.34 163.977 51.135C163.977 47.937 166.56 45.354 169.758 45.354C170.947 45.354 172.095 45.723 172.997 46.338L177.384 43.673C175.457 41.664 172.751 40.434 169.758 40.434C163.854 40.434 159.057 45.231 159.057 51.135ZM159.836 55.112C160.287 56.219 160.902 57.244 161.681 58.146L165.986 55.522C165.084 54.743 164.428 53.677 164.141 52.488L159.836 55.112ZM164.633 51.135V51.422L172.382 46.707C171.603 46.256 170.701 46.01 169.758 46.01C166.929 46.01 164.633 48.306 164.633 51.135ZM164.715 52.16C164.961 53.349 165.658 54.415 166.601 55.153L174.801 50.151C174.555 48.962 173.899 47.896 172.956 47.117L164.715 52.16ZM173.571 46.789C174.473 47.568 175.129 48.593 175.375 49.823L179.721 47.158C179.27 46.051 178.614 45.067 177.876 44.165L173.571 46.789ZM188.069 62V42.689C185.855 44.042 183.149 46.83 183.149 51.709V62H182.493V40.27H183.149V47.732C184.174 44.903 185.773 43.304 188.069 41.951V40.27H188.725V41.582C190.365 40.762 192.128 40.352 193.85 40.352V41.008C192.128 41.008 190.324 41.459 188.725 42.32V49.044C189.668 47.199 191.636 45.928 193.85 45.928V46.584C190.98 46.584 188.725 48.88 188.725 51.709V62H188.069ZM211.68 61.344H222.545V62H205.448V33.3H222.545V33.956H211.68V38.876H222.545V39.532H211.68V44.534H219.593V45.19H211.68V50.11H219.593V50.766H211.68V55.768H222.545V56.424H211.68V61.344ZM206.104 39.532V44.534H211.024V39.532H206.104ZM211.024 56.424H206.104V61.344H211.024V56.424ZM211.024 33.956H206.104V38.876H211.024V33.956ZM211.024 45.19H206.104V50.11H211.024V45.19ZM206.104 50.766V55.768H211.024V50.766H206.104ZM231.138 40.27L234.705 45.682L238.313 40.27H239.133L235.115 46.297L237.903 50.52L244.709 40.27H245.529L238.313 51.135L245.529 62H244.709L237.903 51.75L235.115 55.973L239.133 62H238.313L234.746 56.588L231.138 62H230.318L234.336 55.973L231.507 51.75L224.742 62H223.922L231.097 51.135L223.922 40.27H224.742L231.507 50.52L234.295 46.297L230.318 40.27H231.138ZM234.705 55.358L237.493 51.135L234.705 46.912L231.917 51.135L234.705 55.358ZM245.045 51.135C245.045 44.862 250.129 39.778 256.402 39.778C261.404 39.778 265.627 42.976 267.144 47.486L253.819 55.563C254.598 56.014 255.459 56.26 256.402 56.26C258.452 56.26 260.215 55.03 261.035 53.308L261.65 53.595C260.748 55.563 258.739 56.916 256.402 56.916C255.213 56.916 254.106 56.547 253.204 55.932L248.776 58.638C250.703 60.606 253.409 61.836 256.402 61.836C260.666 61.836 264.397 59.294 266.119 55.645L266.693 55.932C264.889 59.827 260.953 62.492 256.402 62.492C250.129 62.492 245.045 57.408 245.045 51.135ZM245.701 51.135C245.701 52.324 245.906 53.431 246.234 54.497L250.662 51.791C250.621 51.586 250.621 51.34 250.621 51.135C250.621 47.937 253.204 45.354 256.402 45.354C257.591 45.354 258.739 45.723 259.641 46.338L264.028 43.673C262.101 41.664 259.395 40.434 256.402 40.434C250.498 40.434 245.701 45.231 245.701 51.135ZM246.48 55.112C246.931 56.219 247.546 57.244 248.325 58.146L252.63 55.522C251.728 54.743 251.072 53.677 250.785 52.488L246.48 55.112ZM251.277 51.135V51.422L259.026 46.707C258.247 46.256 257.345 46.01 256.402 46.01C253.573 46.01 251.277 48.306 251.277 51.135ZM251.359 52.16C251.605 53.349 252.302 54.415 253.245 55.153L261.445 50.151C261.199 48.962 260.543 47.896 259.6 47.117L251.359 52.16ZM260.215 46.789C261.117 47.568 261.773 48.593 262.019 49.823L266.365 47.158C265.914 46.051 265.258 45.067 264.52 44.165L260.215 46.789ZM274.713 62V42.689C272.499 44.042 269.793 46.83 269.793 51.709V62H269.137V40.27H269.793V47.732C270.818 44.903 272.417 43.304 274.713 41.951V40.27H275.369V41.582C277.009 40.762 278.772 40.352 280.494 40.352V41.008C278.772 41.008 276.968 41.459 275.369 42.32V49.044C276.312 47.199 278.28 45.928 280.494 45.928V46.584C277.624 46.584 275.369 48.88 275.369 51.709V62H274.713ZM293.375 45.846V46.502H292.186C289.685 46.502 287.553 48.634 287.553 51.135C287.553 53.636 289.685 55.768 292.186 55.768H293.375V56.424H292.186C289.316 56.424 286.897 54.005 286.897 51.135C286.897 48.265 289.316 45.846 292.186 45.846H293.375ZM293.375 40.926H292.186C286.569 40.926 281.977 45.518 281.977 51.135C281.977 56.752 286.569 61.344 292.186 61.344H293.375V62H292.186C286.2 62 281.321 57.121 281.321 51.135C281.321 45.149 286.2 40.27 292.186 40.27H293.375V40.926ZM296.844 62V40.27H297.5V62H296.844ZM303.076 40.27V62H302.42V40.27H303.076ZM302.42 38.138V31.25H303.076V38.138H302.42ZM297.5 31.25V38.138H296.844V31.25H297.5ZM306.271 46.953C306.271 42.976 309.469 39.778 313.446 39.778C316.398 39.778 318.94 41.582 320.047 44.124L319.432 44.411C318.448 42.074 316.111 40.434 313.446 40.434C309.838 40.434 306.927 43.345 306.927 46.953C306.927 50.028 309.018 52.57 311.888 53.308L313.692 53.759C314.389 53.923 314.881 54.579 314.881 55.317C314.881 56.219 314.184 56.916 313.282 56.916C312.585 56.916 312.011 56.506 311.765 55.85L312.38 55.604C312.503 55.973 312.831 56.26 313.282 56.26C313.815 56.26 314.225 55.85 314.225 55.317C314.225 54.866 313.979 54.497 313.528 54.374L311.683 53.923C308.567 53.144 306.271 50.315 306.271 46.953ZM306.681 58.187L307.296 57.9C308.28 60.237 310.576 61.836 313.282 61.836C316.89 61.836 319.801 58.925 319.801 55.317C319.801 52.242 317.71 49.7 314.84 48.962L313.036 48.511C312.298 48.306 311.847 47.691 311.847 46.953C311.847 46.051 312.544 45.354 313.446 45.354C314.143 45.354 314.717 45.805 314.922 46.42L314.348 46.666C314.225 46.297 313.856 46.01 313.446 46.01C312.913 46.01 312.503 46.42 312.503 46.953C312.503 47.404 312.749 47.773 313.2 47.896L315.045 48.347C318.202 49.126 320.457 51.955 320.457 55.317C320.457 59.294 317.259 62.492 313.282 62.492C310.33 62.492 307.788 60.729 306.681 58.187ZM322.441 51.135C322.441 44.862 327.525 39.778 333.798 39.778C338.8 39.778 343.023 42.976 344.54 47.486L331.215 55.563C331.994 56.014 332.855 56.26 333.798 56.26C335.848 56.26 337.611 55.03 338.431 53.308L339.046 53.595C338.144 55.563 336.135 56.916 333.798 56.916C332.609 56.916 331.502 56.547 330.6 55.932L326.172 58.638C328.099 60.606 330.805 61.836 333.798 61.836C338.062 61.836 341.793 59.294 343.515 55.645L344.089 55.932C342.285 59.827 338.349 62.492 333.798 62.492C327.525 62.492 322.441 57.408 322.441 51.135ZM323.097 51.135C323.097 52.324 323.302 53.431 323.63 54.497L328.058 51.791C328.017 51.586 328.017 51.34 328.017 51.135C328.017 47.937 330.6 45.354 333.798 45.354C334.987 45.354 336.135 45.723 337.037 46.338L341.424 43.673C339.497 41.664 336.791 40.434 333.798 40.434C327.894 40.434 323.097 45.231 323.097 51.135ZM323.876 55.112C324.327 56.219 324.942 57.244 325.721 58.146L330.026 55.522C329.124 54.743 328.468 53.677 328.181 52.488L323.876 55.112ZM328.673 51.135V51.422L336.422 46.707C335.643 46.256 334.741 46.01 333.798 46.01C330.969 46.01 328.673 48.306 328.673 51.135ZM328.755 52.16C329.001 53.349 329.698 54.415 330.641 55.153L338.841 50.151C338.595 48.962 337.939 47.896 336.996 47.117L328.755 52.16ZM337.611 46.789C338.513 47.568 339.169 48.593 339.415 49.823L343.761 47.158C343.31 46.051 342.654 45.067 341.916 44.165L337.611 46.789ZM365.801 45.764H354.936V45.108H365.801V45.764ZM365.801 51.34H354.936V50.684H365.801V51.34ZM391.729 62H391.073L385.169 46.871V62H384.513V39.532H379.593V62H378.937V33.3H388.08C393.328 33.3 397.51 37.482 397.51 42.73C397.51 46.912 395.419 49.372 393 50.889L397.305 62H396.649L392.467 51.217C391.278 51.914 389.597 52.529 388.203 52.939L391.729 62ZM390.827 45.313L392.754 50.274C394.968 48.88 396.854 46.584 396.854 42.73C396.854 37.81 393 33.956 388.08 33.956H385.169V38.876H388.08C390.212 38.876 391.934 40.598 391.934 42.73C391.934 43.714 391.565 44.575 390.827 45.313ZM385.169 39.532V46.871L386.727 46.543C389.925 45.846 391.278 44.493 391.278 42.73C391.278 40.926 389.884 39.532 388.08 39.532H385.169ZM379.593 33.956V38.876H384.513V33.956H379.593ZM392.221 50.602L390.335 45.764C389.105 46.707 387.67 47.035 386.071 47.363L387.957 52.283C389.187 51.955 391.196 51.217 392.221 50.602ZM410.352 62.492C404.079 62.492 398.995 57.408 398.995 51.135C398.995 44.862 404.079 39.778 410.352 39.778C416.625 39.778 421.709 44.862 421.709 51.135C421.709 57.408 416.625 62.492 410.352 62.492ZM410.352 61.836C416.256 61.836 421.053 57.039 421.053 51.135C421.053 45.231 416.256 40.434 410.352 40.434C404.448 40.434 399.651 45.231 399.651 51.135C399.651 57.039 404.448 61.836 410.352 61.836ZM410.352 56.916C407.154 56.916 404.571 54.333 404.571 51.135C404.571 47.937 407.154 45.354 410.352 45.354C413.55 45.354 416.133 47.937 416.133 51.135C416.133 54.333 413.55 56.916 410.352 56.916ZM410.352 56.26C413.181 56.26 415.477 53.964 415.477 51.135C415.477 48.306 413.181 46.01 410.352 46.01C407.523 46.01 405.227 48.306 405.227 51.135C405.227 53.964 407.523 56.26 410.352 56.26ZM425.305 31.25V62H424.649V31.25H425.305ZM430.881 31.25V62H430.225V31.25H430.881ZM435.715 31.25V62H435.059V31.25H435.715ZM441.291 31.25V62H440.635V31.25H441.291ZM445.469 62V40.27H446.125V62H445.469ZM451.701 40.27V62H451.045V40.27H451.701ZM451.045 38.138V31.25H451.701V38.138H451.045ZM446.125 31.25V38.138H445.469V31.25H446.125ZM455.88 62V40.27H456.536V46.461C457.438 44.124 459.201 42.197 461.456 41.09V40.27H462.112V40.762C463.26 40.311 464.49 40.065 465.802 40.065C471.255 40.065 475.724 44.534 475.724 49.987V62H475.068V49.987C475.068 44.903 470.886 40.721 465.802 40.721C464.49 40.721 463.26 41.008 462.112 41.5V47.691C462.891 46.461 464.244 45.641 465.802 45.641C468.18 45.641 470.148 47.609 470.148 49.987V62H469.492V49.987C469.492 47.978 467.811 46.297 465.802 46.297C463.793 46.297 462.112 47.978 462.112 49.987V62H461.456V41.828C458.545 43.386 456.536 46.461 456.536 49.987V62H455.88ZM478.394 51.135C478.394 44.862 483.478 39.778 489.751 39.778C491.596 39.778 493.318 40.229 494.876 41.008V40.27H495.532V41.377C497.828 42.648 499.591 44.944 500.452 47.322V40.27H501.108V60.155C501.108 66.428 496.065 71.512 489.751 71.512C485.856 71.512 482.412 69.503 480.321 66.51L480.895 66.182C482.863 69.011 486.102 70.856 489.751 70.856C495.737 70.856 500.452 66.1 500.452 60.155V54.907C499.632 57.285 497.787 59.663 495.45 60.934C495.04 63.722 492.703 65.936 489.751 65.936C487.906 65.936 486.225 65.034 485.159 63.722L485.733 63.394C486.635 64.501 488.152 65.28 489.751 65.28C492.211 65.28 494.22 63.599 494.753 61.344C493.236 62.041 491.514 62.492 489.751 62.492C483.478 62.492 478.394 57.408 478.394 51.135ZM479.05 51.135C479.05 57.039 483.847 61.836 489.751 61.836C491.596 61.836 493.318 61.385 494.835 60.565C494.876 60.278 494.876 59.745 494.876 59.212V53.841C493.892 55.645 491.965 56.916 489.751 56.916C486.553 56.916 483.97 54.333 483.97 51.135C483.97 47.937 486.553 45.354 489.751 45.354C491.965 45.354 493.892 46.625 494.876 48.47V41.746C493.359 40.926 491.596 40.434 489.751 40.434C483.847 40.434 479.05 45.231 479.05 51.135ZM484.626 51.135C484.626 53.964 486.922 56.26 489.751 56.26C492.621 56.26 494.876 53.964 494.876 51.135C494.876 48.306 492.621 46.01 489.751 46.01C486.922 46.01 484.626 48.306 484.626 51.135ZM495.532 42.115V60.155C498.279 58.474 500.452 55.071 500.452 51.135C500.452 47.199 498.279 43.796 495.532 42.115ZM513.159 41.746C513.159 36.826 517.177 32.849 522.261 32.849C526.197 32.849 529.518 35.268 530.789 38.671L530.215 38.917C529.026 35.719 525.91 33.423 522.261 33.464C517.587 33.505 513.774 37.154 513.815 41.746C513.856 45.6 516.48 48.88 520.129 49.7L523.081 50.356C524.557 50.684 525.664 52.037 525.664 53.554C525.664 55.399 524.106 56.875 522.138 56.875C520.457 56.875 519.063 55.768 518.694 54.292L519.309 54.005C519.555 55.276 520.703 56.301 522.138 56.26C523.737 56.219 524.967 55.03 525.008 53.554C525.049 52.324 524.147 51.258 522.876 50.971L520.006 50.356C515.988 49.495 513.159 45.887 513.159 41.746ZM513.569 56.629L514.184 56.342C515.332 59.581 518.448 61.877 522.138 61.836C526.812 61.795 530.625 58.146 530.584 53.554C530.543 49.7 527.919 46.42 524.27 45.6L521.318 44.944C519.842 44.616 518.735 43.263 518.735 41.746C518.735 39.901 520.293 38.425 522.261 38.425C523.942 38.425 525.336 39.491 525.664 40.967L525.09 41.254C524.844 39.983 523.655 38.999 522.261 39.04C520.662 39.081 519.432 40.27 519.391 41.746C519.35 42.976 520.252 44.042 521.523 44.329L524.393 44.944C528.411 45.805 531.24 49.413 531.24 53.554C531.24 58.474 527.222 62.451 522.138 62.451C518.161 62.451 514.84 60.032 513.569 56.629ZM536.046 40.926H532.807V40.27H536.046V33.3H536.702V40.27H541.622V33.3H542.278V40.27H545.517V40.926H542.278V45.846H545.517V46.502H542.278V62H541.622V46.502H536.702V62H536.046V46.502H532.807V45.846H536.046V40.926ZM541.622 40.926H536.702V45.846H541.622V40.926ZM558.217 62.492C551.944 62.492 546.86 57.408 546.86 51.135C546.86 44.862 551.944 39.778 558.217 39.778C564.49 39.778 569.574 44.862 569.574 51.135C569.574 57.408 564.49 62.492 558.217 62.492ZM558.217 61.836C564.121 61.836 568.918 57.039 568.918 51.135C568.918 45.231 564.121 40.434 558.217 40.434C552.313 40.434 547.516 45.231 547.516 51.135C547.516 57.039 552.313 61.836 558.217 61.836ZM558.217 56.916C555.019 56.916 552.436 54.333 552.436 51.135C552.436 47.937 555.019 45.354 558.217 45.354C561.415 45.354 563.998 47.937 563.998 51.135C563.998 54.333 561.415 56.916 558.217 56.916ZM558.217 56.26C561.046 56.26 563.342 53.964 563.342 51.135C563.342 48.306 561.046 46.01 558.217 46.01C555.388 46.01 553.092 48.306 553.092 51.135C553.092 53.964 555.388 56.26 558.217 56.26ZM572.513 62V40.27H573.169V46.461C574.071 44.124 575.834 42.197 578.089 41.09V40.27H578.745V40.762C579.893 40.311 581.123 40.065 582.435 40.065C587.888 40.065 592.357 44.534 592.357 49.987V62H591.701V49.987C591.701 44.903 587.519 40.721 582.435 40.721C581.123 40.721 579.893 41.008 578.745 41.5V47.691C579.524 46.461 580.877 45.641 582.435 45.641C584.813 45.641 586.781 47.609 586.781 49.987V62H586.125V49.987C586.125 47.978 584.444 46.297 582.435 46.297C580.426 46.297 578.745 47.978 578.745 49.987V62H578.089V41.828C575.178 43.386 573.169 46.461 573.169 49.987V62H572.513ZM594.986 51.135C594.986 44.862 600.07 39.778 606.343 39.778C611.345 39.778 615.568 42.976 617.085 47.486L603.76 55.563C604.539 56.014 605.4 56.26 606.343 56.26C608.393 56.26 610.156 55.03 610.976 53.308L611.591 53.595C610.689 55.563 608.68 56.916 606.343 56.916C605.154 56.916 604.047 56.547 603.145 55.932L598.717 58.638C600.644 60.606 603.35 61.836 606.343 61.836C610.607 61.836 614.338 59.294 616.06 55.645L616.634 55.932C614.83 59.827 610.894 62.492 606.343 62.492C600.07 62.492 594.986 57.408 594.986 51.135ZM595.642 51.135C595.642 52.324 595.847 53.431 596.175 54.497L600.603 51.791C600.562 51.586 600.562 51.34 600.562 51.135C600.562 47.937 603.145 45.354 606.343 45.354C607.532 45.354 608.68 45.723 609.582 46.338L613.969 43.673C612.042 41.664 609.336 40.434 606.343 40.434C600.439 40.434 595.642 45.231 595.642 51.135ZM596.421 55.112C596.872 56.219 597.487 57.244 598.266 58.146L602.571 55.522C601.669 54.743 601.013 53.677 600.726 52.488L596.421 55.112ZM601.218 51.135V51.422L608.967 46.707C608.188 46.256 607.286 46.01 606.343 46.01C603.514 46.01 601.218 48.306 601.218 51.135ZM601.3 52.16C601.546 53.349 602.243 54.415 603.186 55.153L611.386 50.151C611.14 48.962 610.484 47.896 609.541 47.117L601.3 52.16ZM610.156 46.789C611.058 47.568 611.714 48.593 611.96 49.823L616.306 47.158C615.855 46.051 615.199 45.067 614.461 44.165L610.156 46.789ZM618.095 46.953C618.095 42.976 621.293 39.778 625.27 39.778C628.222 39.778 630.764 41.582 631.871 44.124L631.256 44.411C630.272 42.074 627.935 40.434 625.27 40.434C621.662 40.434 618.751 43.345 618.751 46.953C618.751 50.028 620.842 52.57 623.712 53.308L625.516 53.759C626.213 53.923 626.705 54.579 626.705 55.317C626.705 56.219 626.008 56.916 625.106 56.916C624.409 56.916 623.835 56.506 623.589 55.85L624.204 55.604C624.327 55.973 624.655 56.26 625.106 56.26C625.639 56.26 626.049 55.85 626.049 55.317C626.049 54.866 625.803 54.497 625.352 54.374L623.507 53.923C620.391 53.144 618.095 50.315 618.095 46.953ZM618.505 58.187L619.12 57.9C620.104 60.237 622.4 61.836 625.106 61.836C628.714 61.836 631.625 58.925 631.625 55.317C631.625 52.242 629.534 49.7 626.664 48.962L624.86 48.511C624.122 48.306 623.671 47.691 623.671 46.953C623.671 46.051 624.368 45.354 625.27 45.354C625.967 45.354 626.541 45.805 626.746 46.42L626.172 46.666C626.049 46.297 625.68 46.01 625.27 46.01C624.737 46.01 624.327 46.42 624.327 46.953C624.327 47.404 624.573 47.773 625.024 47.896L626.869 48.347C630.026 49.126 632.281 51.955 632.281 55.317C632.281 59.294 629.083 62.492 625.106 62.492C622.154 62.492 619.612 60.729 618.505 58.187ZM650.745 48.962H650.991C653.164 48.962 654.968 50.766 654.968 52.939C654.968 55.112 653.164 56.916 650.991 56.916C649.433 56.916 648.08 56.096 647.301 54.825L647.793 54.456C648.408 55.563 649.638 56.26 650.991 56.26C652.836 56.26 654.312 54.784 654.312 52.939C654.312 51.094 652.836 49.618 650.991 49.618H644.513V33.3H658.453V33.956H650.745V38.876H658.453V39.532H650.745V43.386H650.991C656.239 43.386 660.544 47.691 660.544 52.939C660.544 58.187 656.239 62.492 650.991 62.492C647.629 62.492 644.595 60.77 642.832 58.228L643.365 57.818C645.046 60.196 647.875 61.836 650.991 61.836C655.911 61.836 659.888 57.859 659.888 52.939C659.888 48.019 655.911 44.042 650.991 44.042H650.745V48.962ZM645.169 39.532V43.386H650.089V39.532H645.169ZM645.169 48.962H650.089V44.042H645.169V48.962ZM645.169 33.956V38.876H650.089V33.956H645.169ZM663.19 51.873V43.427C663.19 37.564 667.946 32.808 673.809 32.808C679.672 32.808 684.428 37.564 684.428 43.427V51.873C684.428 57.736 679.672 62.492 673.809 62.492C667.946 62.492 663.19 57.736 663.19 51.873ZM663.846 43.427V51.873C663.846 57.326 668.356 61.836 673.809 61.836C679.262 61.836 683.772 57.326 683.772 51.873V43.427C683.772 37.974 679.262 33.464 673.809 33.464C668.356 33.464 663.846 37.974 663.846 43.427ZM668.766 51.873V43.427C668.766 40.68 671.062 38.384 673.809 38.384C676.556 38.384 678.852 40.68 678.852 43.427V51.873C678.852 54.62 676.556 56.916 673.809 56.916C671.062 56.916 668.766 54.62 668.766 51.873ZM669.422 43.427V51.873C669.422 54.251 671.431 56.26 673.809 56.26C676.187 56.26 678.196 54.251 678.196 51.873V43.427C678.196 41.049 676.187 39.04 673.809 39.04C671.431 39.04 669.422 41.049 669.422 43.427ZM687.614 51.873V43.427C687.614 37.564 692.37 32.808 698.233 32.808C704.096 32.808 708.852 37.564 708.852 43.427V51.873C708.852 57.736 704.096 62.492 698.233 62.492C692.37 62.492 687.614 57.736 687.614 51.873ZM688.27 43.427V51.873C688.27 57.326 692.78 61.836 698.233 61.836C703.686 61.836 708.196 57.326 708.196 51.873V43.427C708.196 37.974 703.686 33.464 698.233 33.464C692.78 33.464 688.27 37.974 688.27 43.427ZM693.19 51.873V43.427C693.19 40.68 695.486 38.384 698.233 38.384C700.98 38.384 703.276 40.68 703.276 43.427V51.873C703.276 54.62 700.98 56.916 698.233 56.916C695.486 56.916 693.19 54.62 693.19 51.873ZM693.846 43.427V51.873C693.846 54.251 695.855 56.26 698.233 56.26C700.611 56.26 702.62 54.251 702.62 51.873V43.427C702.62 41.049 700.611 39.04 698.233 39.04C695.855 39.04 693.846 41.049 693.846 43.427ZM725.607 47.65C725.607 42.607 729.83 38.384 734.873 38.384C737.005 38.384 738.973 39.122 740.531 40.352L740.121 40.844C738.686 39.696 736.882 39.04 734.873 39.04C730.158 39.04 726.263 42.935 726.263 47.65C726.263 52.119 729.707 55.768 734.34 55.768H737.907V47.322H738.563V55.768H743.483V47.322H744.139V62H738.563V62.041L737.907 62H734.34C726.386 62 720.031 55.563 720.031 47.65C720.031 39.491 726.714 32.808 734.873 32.808C738.276 32.808 741.433 33.997 743.934 35.924L743.524 36.416C741.146 34.571 738.153 33.464 734.873 33.464C727.042 33.464 720.687 39.819 720.687 47.65C720.687 55.235 726.714 61.344 734.34 61.344H737.907V56.424H734.34C729.297 56.424 725.607 52.447 725.607 47.65ZM738.563 56.424V61.344H743.483V56.424H738.563ZM753.26 62V42.689C751.046 44.042 748.34 46.83 748.34 51.709V62H747.684V40.27H748.34V47.732C749.365 44.903 750.964 43.304 753.26 41.951V40.27H753.916V41.582C755.556 40.762 757.319 40.352 759.041 40.352V41.008C757.319 41.008 755.515 41.459 753.916 42.32V49.044C754.859 47.199 756.827 45.928 759.041 45.928V46.584C756.171 46.584 753.916 48.88 753.916 51.709V62H753.26ZM759.827 51.135C759.827 44.862 764.911 39.778 771.184 39.778C776.186 39.778 780.409 42.976 781.926 47.486L768.601 55.563C769.38 56.014 770.241 56.26 771.184 56.26C773.234 56.26 774.997 55.03 775.817 53.308L776.432 53.595C775.53 55.563 773.521 56.916 771.184 56.916C769.995 56.916 768.888 56.547 767.986 55.932L763.558 58.638C765.485 60.606 768.191 61.836 771.184 61.836C775.448 61.836 779.179 59.294 780.901 55.645L781.475 55.932C779.671 59.827 775.735 62.492 771.184 62.492C764.911 62.492 759.827 57.408 759.827 51.135ZM760.483 51.135C760.483 52.324 760.688 53.431 761.016 54.497L765.444 51.791C765.403 51.586 765.403 51.34 765.403 51.135C765.403 47.937 767.986 45.354 771.184 45.354C772.373 45.354 773.521 45.723 774.423 46.338L778.81 43.673C776.883 41.664 774.177 40.434 771.184 40.434C765.28 40.434 760.483 45.231 760.483 51.135ZM761.262 55.112C761.713 56.219 762.328 57.244 763.107 58.146L767.412 55.522C766.51 54.743 765.854 53.677 765.567 52.488L761.262 55.112ZM766.059 51.135V51.422L773.808 46.707C773.029 46.256 772.127 46.01 771.184 46.01C768.355 46.01 766.059 48.306 766.059 51.135ZM766.141 52.16C766.387 53.349 767.084 54.415 768.027 55.153L776.227 50.151C775.981 48.962 775.325 47.896 774.382 47.117L766.141 52.16ZM774.997 46.789C775.899 47.568 776.555 48.593 776.801 49.823L781.147 47.158C780.696 46.051 780.04 45.067 779.302 44.165L774.997 46.789ZM799.828 42.115V60.155C802.575 58.474 804.748 55.071 804.748 51.135C804.748 47.199 802.575 43.796 799.828 42.115ZM794.047 39.778C795.892 39.778 797.614 40.229 799.172 41.008V40.27H799.828V41.377C802.124 42.648 803.887 44.944 804.748 47.322V40.27H805.404V62H804.748V54.907C803.928 57.244 802.124 59.663 799.828 60.934V62H799.172V61.262C797.614 62.041 795.892 62.492 794.047 62.492C787.774 62.492 782.69 57.408 782.69 51.135C782.69 44.862 787.774 39.778 794.047 39.778ZM794.047 61.836C795.892 61.836 797.655 61.385 799.172 60.565V53.841C798.188 55.645 796.261 56.916 794.047 56.916C790.849 56.916 788.266 54.333 788.266 51.135C788.266 47.937 790.849 45.354 794.047 45.354C796.261 45.354 798.188 46.625 799.172 48.47V41.746C797.655 40.926 795.892 40.434 794.047 40.434C788.143 40.434 783.346 45.231 783.346 51.135C783.346 57.039 788.143 61.836 794.047 61.836ZM794.047 56.26C796.917 56.26 799.172 53.964 799.172 51.135C799.172 48.306 796.917 46.01 794.047 46.01C791.218 46.01 788.922 48.306 788.922 51.135C788.922 53.964 791.218 56.26 794.047 56.26ZM811.635 40.926H808.396V40.27H811.635V33.3H812.291V40.27H817.211V33.3H817.867V40.27H821.106V40.926H817.867V45.846H821.106V46.502H817.867V62H817.211V46.502H812.291V62H811.635V46.502H808.396V45.846H811.635V40.926ZM817.211 40.926H812.291V45.846H817.211V40.926ZM822.448 51.135C822.448 44.862 827.532 39.778 833.805 39.778C838.807 39.778 843.03 42.976 844.547 47.486L831.222 55.563C832.001 56.014 832.862 56.26 833.805 56.26C835.855 56.26 837.618 55.03 838.438 53.308L839.053 53.595C838.151 55.563 836.142 56.916 833.805 56.916C832.616 56.916 831.509 56.547 830.607 55.932L826.179 58.638C828.106 60.606 830.812 61.836 833.805 61.836C838.069 61.836 841.8 59.294 843.522 55.645L844.096 55.932C842.292 59.827 838.356 62.492 833.805 62.492C827.532 62.492 822.448 57.408 822.448 51.135ZM823.104 51.135C823.104 52.324 823.309 53.431 823.637 54.497L828.065 51.791C828.024 51.586 828.024 51.34 828.024 51.135C828.024 47.937 830.607 45.354 833.805 45.354C834.994 45.354 836.142 45.723 837.044 46.338L841.431 43.673C839.504 41.664 836.798 40.434 833.805 40.434C827.901 40.434 823.104 45.231 823.104 51.135ZM823.883 55.112C824.334 56.219 824.949 57.244 825.728 58.146L830.033 55.522C829.131 54.743 828.475 53.677 828.188 52.488L823.883 55.112ZM828.68 51.135V51.422L836.429 46.707C835.65 46.256 834.748 46.01 833.805 46.01C830.976 46.01 828.68 48.306 828.68 51.135ZM828.762 52.16C829.008 53.349 829.705 54.415 830.648 55.153L838.848 50.151C838.602 48.962 837.946 47.896 837.003 47.117L828.762 52.16ZM837.618 46.789C838.52 47.568 839.176 48.593 839.422 49.823L843.768 47.158C843.317 46.051 842.661 45.067 841.923 44.165L837.618 46.789ZM845.557 46.953C845.557 42.976 848.755 39.778 852.732 39.778C855.684 39.778 858.226 41.582 859.333 44.124L858.718 44.411C857.734 42.074 855.397 40.434 852.732 40.434C849.124 40.434 846.213 43.345 846.213 46.953C846.213 50.028 848.304 52.57 851.174 53.308L852.978 53.759C853.675 53.923 854.167 54.579 854.167 55.317C854.167 56.219 853.47 56.916 852.568 56.916C851.871 56.916 851.297 56.506 851.051 55.85L851.666 55.604C851.789 55.973 852.117 56.26 852.568 56.26C853.101 56.26 853.511 55.85 853.511 55.317C853.511 54.866 853.265 54.497 852.814 54.374L850.969 53.923C847.853 53.144 845.557 50.315 845.557 46.953ZM845.967 58.187L846.582 57.9C847.566 60.237 849.862 61.836 852.568 61.836C856.176 61.836 859.087 58.925 859.087 55.317C859.087 52.242 856.996 49.7 854.126 48.962L852.322 48.511C851.584 48.306 851.133 47.691 851.133 46.953C851.133 46.051 851.83 45.354 852.732 45.354C853.429 45.354 854.003 45.805 854.208 46.42L853.634 46.666C853.511 46.297 853.142 46.01 852.732 46.01C852.199 46.01 851.789 46.42 851.789 46.953C851.789 47.404 852.035 47.773 852.486 47.896L854.331 48.347C857.488 49.126 859.743 51.955 859.743 55.317C859.743 59.294 856.545 62.492 852.568 62.492C849.616 62.492 847.074 60.729 845.967 58.187ZM864.807 40.926H861.568V40.27H864.807V33.3H865.463V40.27H870.383V33.3H871.039V40.27H874.278V40.926H871.039V45.846H874.278V46.502H871.039V62H870.383V46.502H865.463V62H864.807V46.502H861.568V45.846H864.807V40.926ZM870.383 40.926H865.463V45.846H870.383V40.926ZM885.162 41.746C885.162 36.826 889.18 32.849 894.264 32.849C898.2 32.849 901.521 35.268 902.792 38.671L902.218 38.917C901.029 35.719 897.913 33.423 894.264 33.464C889.59 33.505 885.777 37.154 885.818 41.746C885.859 45.6 888.483 48.88 892.132 49.7L895.084 50.356C896.56 50.684 897.667 52.037 897.667 53.554C897.667 55.399 896.109 56.875 894.141 56.875C892.46 56.875 891.066 55.768 890.697 54.292L891.312 54.005C891.558 55.276 892.706 56.301 894.141 56.26C895.74 56.219 896.97 55.03 897.011 53.554C897.052 52.324 896.15 51.258 894.879 50.971L892.009 50.356C887.991 49.495 885.162 45.887 885.162 41.746ZM885.572 56.629L886.187 56.342C887.335 59.581 890.451 61.877 894.141 61.836C898.815 61.795 902.628 58.146 902.587 53.554C902.546 49.7 899.922 46.42 896.273 45.6L893.321 44.944C891.845 44.616 890.738 43.263 890.738 41.746C890.738 39.901 892.296 38.425 894.264 38.425C895.945 38.425 897.339 39.491 897.667 40.967L897.093 41.254C896.847 39.983 895.658 38.999 894.264 39.04C892.665 39.081 891.435 40.27 891.394 41.746C891.353 42.976 892.255 44.042 893.526 44.329L896.396 44.944C900.414 45.805 903.243 49.413 903.243 53.554C903.243 58.474 899.225 62.451 894.141 62.451C890.164 62.451 886.843 60.032 885.572 56.629ZM916.806 62.492C910.533 62.492 905.449 57.408 905.449 51.135C905.449 44.862 910.533 39.778 916.806 39.778C923.079 39.778 928.163 44.862 928.163 51.135C928.163 57.408 923.079 62.492 916.806 62.492ZM916.806 61.836C922.71 61.836 927.507 57.039 927.507 51.135C927.507 45.231 922.71 40.434 916.806 40.434C910.902 40.434 906.105 45.231 906.105 51.135C906.105 57.039 910.902 61.836 916.806 61.836ZM916.806 56.916C913.608 56.916 911.025 54.333 911.025 51.135C911.025 47.937 913.608 45.354 916.806 45.354C920.004 45.354 922.587 47.937 922.587 51.135C922.587 54.333 920.004 56.916 916.806 56.916ZM916.806 56.26C919.635 56.26 921.931 53.964 921.931 51.135C921.931 48.306 919.635 46.01 916.806 46.01C913.977 46.01 911.681 48.306 911.681 51.135C911.681 53.964 913.977 56.26 916.806 56.26ZM931.103 62V40.27H931.759V46.461C932.661 44.124 934.424 42.197 936.679 41.09V40.27H937.335V40.762C938.483 40.311 939.713 40.065 941.025 40.065C946.478 40.065 950.947 44.534 950.947 49.987V62H950.291V49.987C950.291 44.903 946.109 40.721 941.025 40.721C939.713 40.721 938.483 41.008 937.335 41.5V47.691C938.114 46.461 939.467 45.641 941.025 45.641C943.403 45.641 945.371 47.609 945.371 49.987V62H944.715V49.987C944.715 47.978 943.034 46.297 941.025 46.297C939.016 46.297 937.335 47.978 937.335 49.987V62H936.679V41.828C933.768 43.386 931.759 46.461 931.759 49.987V62H931.103ZM953.617 51.135C953.617 44.862 958.701 39.778 964.974 39.778C966.819 39.778 968.541 40.229 970.099 41.008V40.27H970.755V41.377C973.051 42.648 974.814 44.944 975.675 47.322V40.27H976.331V60.155C976.331 66.428 971.288 71.512 964.974 71.512C961.079 71.512 957.635 69.503 955.544 66.51L956.118 66.182C958.086 69.011 961.325 70.856 964.974 70.856C970.96 70.856 975.675 66.1 975.675 60.155V54.907C974.855 57.285 973.01 59.663 970.673 60.934C970.263 63.722 967.926 65.936 964.974 65.936C963.129 65.936 961.448 65.034 960.382 63.722L960.956 63.394C961.858 64.501 963.375 65.28 964.974 65.28C967.434 65.28 969.443 63.599 969.976 61.344C968.459 62.041 966.737 62.492 964.974 62.492C958.701 62.492 953.617 57.408 953.617 51.135ZM954.273 51.135C954.273 57.039 959.07 61.836 964.974 61.836C966.819 61.836 968.541 61.385 970.058 60.565C970.099 60.278 970.099 59.745 970.099 59.212V53.841C969.115 55.645 967.188 56.916 964.974 56.916C961.776 56.916 959.193 54.333 959.193 51.135C959.193 47.937 961.776 45.354 964.974 45.354C967.188 45.354 969.115 46.625 970.099 48.47V41.746C968.582 40.926 966.819 40.434 964.974 40.434C959.07 40.434 954.273 45.231 954.273 51.135ZM959.849 51.135C959.849 53.964 962.145 56.26 964.974 56.26C967.844 56.26 970.099 53.964 970.099 51.135C970.099 48.306 967.844 46.01 964.974 46.01C962.145 46.01 959.849 48.306 959.849 51.135ZM970.755 42.115V60.155C973.502 58.474 975.675 55.071 975.675 51.135C975.675 47.199 973.502 43.796 970.755 42.115ZM979.487 46.953C979.487 42.976 982.685 39.778 986.662 39.778C989.614 39.778 992.156 41.582 993.263 44.124L992.648 44.411C991.664 42.074 989.327 40.434 986.662 40.434C983.054 40.434 980.143 43.345 980.143 46.953C980.143 50.028 982.234 52.57 985.104 53.308L986.908 53.759C987.605 53.923 988.097 54.579 988.097 55.317C988.097 56.219 987.4 56.916 986.498 56.916C985.801 56.916 985.227 56.506 984.981 55.85L985.596 55.604C985.719 55.973 986.047 56.26 986.498 56.26C987.031 56.26 987.441 55.85 987.441 55.317C987.441 54.866 987.195 54.497 986.744 54.374L984.899 53.923C981.783 53.144 979.487 50.315 979.487 46.953ZM979.897 58.187L980.512 57.9C981.496 60.237 983.792 61.836 986.498 61.836C990.106 61.836 993.017 58.925 993.017 55.317C993.017 52.242 990.926 49.7 988.056 48.962L986.252 48.511C985.514 48.306 985.063 47.691 985.063 46.953C985.063 46.051 985.76 45.354 986.662 45.354C987.359 45.354 987.933 45.805 988.138 46.42L987.564 46.666C987.441 46.297 987.072 46.01 986.662 46.01C986.129 46.01 985.719 46.42 985.719 46.953C985.719 47.404 985.965 47.773 986.416 47.896L988.261 48.347C991.418 49.126 993.673 51.955 993.673 55.317C993.673 59.294 990.475 62.492 986.498 62.492C983.546 62.492 981.004 60.729 979.897 58.187ZM1015.62 62.492C1009.35 62.492 1004.27 57.408 1004.27 51.135C1004.27 44.862 1009.35 39.778 1015.62 39.778C1021.9 39.778 1026.98 44.862 1026.98 51.135C1026.98 57.408 1021.9 62.492 1015.62 62.492ZM1015.62 61.836C1021.53 61.836 1026.32 57.039 1026.32 51.135C1026.32 45.231 1021.53 40.434 1015.62 40.434C1009.72 40.434 1004.92 45.231 1004.92 51.135C1004.92 57.039 1009.72 61.836 1015.62 61.836ZM1015.62 56.916C1012.42 56.916 1009.84 54.333 1009.84 51.135C1009.84 47.937 1012.42 45.354 1015.62 45.354C1018.82 45.354 1021.4 47.937 1021.4 51.135C1021.4 54.333 1018.82 56.916 1015.62 56.916ZM1015.62 56.26C1018.45 56.26 1020.75 53.964 1020.75 51.135C1020.75 48.306 1018.45 46.01 1015.62 46.01C1012.79 46.01 1010.5 48.306 1010.5 51.135C1010.5 53.964 1012.79 56.26 1015.62 56.26ZM1032.23 46.502V62H1031.57V46.502H1028.33V45.846H1031.57V40.926H1028.33V40.27H1031.57V38.466C1031.57 34.448 1034.81 31.25 1038.87 31.25H1042.02V31.906H1038.87C1035.14 31.906 1032.23 34.776 1032.23 38.466V40.27H1037.15V38.466C1037.15 37.564 1037.92 36.826 1038.87 36.826H1042.02V37.482H1038.87C1038.25 37.482 1037.8 37.933 1037.8 38.466V40.27H1042.02V40.926H1037.8V45.846H1042.02V46.502H1037.8V62H1037.15V46.502H1032.23ZM1032.23 40.926V45.846H1037.15V40.926H1032.23ZM1069.13 42.115V60.155C1071.88 58.474 1074.05 55.071 1074.05 51.135C1074.05 47.199 1071.88 43.796 1069.13 42.115ZM1063.35 39.778C1065.19 39.778 1066.92 40.229 1068.47 41.008V40.27H1069.13V41.377C1071.43 42.648 1073.19 44.944 1074.05 47.322V40.27H1074.71V62H1074.05V54.907C1073.23 57.244 1071.43 59.663 1069.13 60.934V62H1068.47V61.262C1066.92 62.041 1065.19 62.492 1063.35 62.492C1057.08 62.492 1051.99 57.408 1051.99 51.135C1051.99 44.862 1057.08 39.778 1063.35 39.778ZM1063.35 61.836C1065.19 61.836 1066.96 61.385 1068.47 60.565V53.841C1067.49 55.645 1065.56 56.916 1063.35 56.916C1060.15 56.916 1057.57 54.333 1057.57 51.135C1057.57 47.937 1060.15 45.354 1063.35 45.354C1065.56 45.354 1067.49 46.625 1068.47 48.47V41.746C1066.96 40.926 1065.19 40.434 1063.35 40.434C1057.45 40.434 1052.65 45.231 1052.65 51.135C1052.65 57.039 1057.45 61.836 1063.35 61.836ZM1063.35 56.26C1066.22 56.26 1068.47 53.964 1068.47 51.135C1068.47 48.306 1066.22 46.01 1063.35 46.01C1060.52 46.01 1058.22 48.306 1058.22 51.135C1058.22 53.964 1060.52 56.26 1063.35 56.26ZM1079.54 31.25V62H1078.89V31.25H1079.54ZM1085.12 31.25V62H1084.46V31.25H1085.12ZM1089.95 31.25V62H1089.3V31.25H1089.95ZM1095.53 31.25V62H1094.87V31.25H1095.53ZM1111.91 33.956H1106.04V33.3H1124V33.956H1118.14V38.876H1124V39.532H1118.14V62H1117.48V39.532H1112.56V62H1111.91V39.532H1106.04V38.876H1111.91V33.956ZM1117.48 33.956H1112.56V38.876H1117.48V33.956ZM1126.45 62V40.27H1127.11V62H1126.45ZM1132.69 40.27V62H1132.03V40.27H1132.69ZM1132.03 38.138V31.25H1132.69V38.138H1132.03ZM1127.11 31.25V38.138H1126.45V31.25H1127.11ZM1136.86 62V40.27H1137.52V45.969C1138.42 43.714 1140.23 41.869 1142.44 40.885V40.27H1143.1V40.639C1144.04 40.311 1145.1 40.106 1146.17 40.106C1148.55 40.106 1150.72 41.008 1152.36 42.484C1154 41.008 1156.17 40.106 1158.55 40.106C1163.68 40.106 1167.86 44.288 1167.86 49.413V62H1167.2V49.413C1167.2 44.657 1163.31 40.762 1158.55 40.762C1156.38 40.762 1154.37 41.582 1152.85 42.935C1154.08 44.206 1154.94 45.805 1155.31 47.609C1155.93 46.461 1157.16 45.682 1158.55 45.682C1160.6 45.682 1162.28 47.363 1162.28 49.413V62H1161.63V49.413C1161.63 47.732 1160.23 46.338 1158.55 46.338C1156.87 46.338 1155.48 47.732 1155.48 49.413V62H1154.82V49.413C1154.82 47.076 1153.88 44.944 1152.36 43.386C1150.84 44.944 1149.9 47.076 1149.9 49.413V62H1149.25V49.413C1149.25 47.732 1147.85 46.338 1146.17 46.338C1144.49 46.338 1143.1 47.732 1143.1 49.413V62H1142.44V41.623C1139.53 43.017 1137.52 46.01 1137.52 49.413V62H1136.86ZM1143.1 41.336V47.322C1143.75 46.338 1144.9 45.682 1146.17 45.682C1147.56 45.682 1148.79 46.461 1149.41 47.609C1149.78 45.805 1150.64 44.206 1151.87 42.935C1150.35 41.582 1148.34 40.762 1146.17 40.762C1145.1 40.762 1144.04 40.967 1143.1 41.336ZM1170.51 51.135C1170.51 44.862 1175.59 39.778 1181.86 39.778C1186.87 39.778 1191.09 42.976 1192.61 47.486L1179.28 55.563C1180.06 56.014 1180.92 56.26 1181.86 56.26C1183.91 56.26 1185.68 55.03 1186.5 53.308L1187.11 53.595C1186.21 55.563 1184.2 56.916 1181.86 56.916C1180.68 56.916 1179.57 56.547 1178.67 55.932L1174.24 58.638C1176.17 60.606 1178.87 61.836 1181.86 61.836C1186.13 61.836 1189.86 59.294 1191.58 55.645L1192.16 55.932C1190.35 59.827 1186.42 62.492 1181.86 62.492C1175.59 62.492 1170.51 57.408 1170.51 51.135ZM1171.16 51.135C1171.16 52.324 1171.37 53.431 1171.7 54.497L1176.12 51.791C1176.08 51.586 1176.08 51.34 1176.08 51.135C1176.08 47.937 1178.67 45.354 1181.86 45.354C1183.05 45.354 1184.2 45.723 1185.1 46.338L1189.49 43.673C1187.56 41.664 1184.86 40.434 1181.86 40.434C1175.96 40.434 1171.16 45.231 1171.16 51.135ZM1171.94 55.112C1172.39 56.219 1173.01 57.244 1173.79 58.146L1178.09 55.522C1177.19 54.743 1176.53 53.677 1176.25 52.488L1171.94 55.112ZM1176.74 51.135V51.422L1184.49 46.707C1183.71 46.256 1182.81 46.01 1181.86 46.01C1179.04 46.01 1176.74 48.306 1176.74 51.135ZM1176.82 52.16C1177.07 53.349 1177.76 54.415 1178.71 55.153L1186.91 50.151C1186.66 48.962 1186.01 47.896 1185.06 47.117L1176.82 52.16ZM1185.68 46.789C1186.58 47.568 1187.24 48.593 1187.48 49.823L1191.83 47.158C1191.38 46.051 1190.72 45.067 1189.98 44.165L1185.68 46.789ZM1216.53 62H1215.88L1209.97 46.871V62H1209.32V39.532H1204.4V62H1203.74V33.3H1212.88C1218.13 33.3 1222.31 37.482 1222.31 42.73C1222.31 46.912 1220.22 49.372 1217.8 50.889L1222.11 62H1221.45L1217.27 51.217C1216.08 51.914 1214.4 52.529 1213.01 52.939L1216.53 62ZM1215.63 45.313L1217.56 50.274C1219.77 48.88 1221.66 46.584 1221.66 42.73C1221.66 37.81 1217.8 33.956 1212.88 33.956H1209.97V38.876H1212.88C1215.02 38.876 1216.74 40.598 1216.74 42.73C1216.74 43.714 1216.37 44.575 1215.63 45.313ZM1209.97 39.532V46.871L1211.53 46.543C1214.73 45.846 1216.08 44.493 1216.08 42.73C1216.08 40.926 1214.69 39.532 1212.88 39.532H1209.97ZM1204.4 33.956V38.876H1209.32V33.956H1204.4ZM1217.03 50.602L1215.14 45.764C1213.91 46.707 1212.47 47.035 1210.88 47.363L1212.76 52.283C1213.99 51.955 1216 51.217 1217.03 50.602ZM1223.8 51.135C1223.8 44.862 1228.88 39.778 1235.16 39.778C1240.16 39.778 1244.38 42.976 1245.9 47.486L1232.57 55.563C1233.35 56.014 1234.21 56.26 1235.16 56.26C1237.21 56.26 1238.97 55.03 1239.79 53.308L1240.4 53.595C1239.5 55.563 1237.49 56.916 1235.16 56.916C1233.97 56.916 1232.86 56.547 1231.96 55.932L1227.53 58.638C1229.46 60.606 1232.16 61.836 1235.16 61.836C1239.42 61.836 1243.15 59.294 1244.87 55.645L1245.45 55.932C1243.64 59.827 1239.71 62.492 1235.16 62.492C1228.88 62.492 1223.8 57.408 1223.8 51.135ZM1224.46 51.135C1224.46 52.324 1224.66 53.431 1224.99 54.497L1229.42 51.791C1229.38 51.586 1229.38 51.34 1229.38 51.135C1229.38 47.937 1231.96 45.354 1235.16 45.354C1236.35 45.354 1237.49 45.723 1238.4 46.338L1242.78 43.673C1240.86 41.664 1238.15 40.434 1235.16 40.434C1229.25 40.434 1224.46 45.231 1224.46 51.135ZM1225.23 55.112C1225.69 56.219 1226.3 57.244 1227.08 58.146L1231.38 55.522C1230.48 54.743 1229.83 53.677 1229.54 52.488L1225.23 55.112ZM1230.03 51.135V51.422L1237.78 46.707C1237 46.256 1236.1 46.01 1235.16 46.01C1232.33 46.01 1230.03 48.306 1230.03 51.135ZM1230.11 52.16C1230.36 53.349 1231.06 54.415 1232 55.153L1240.2 50.151C1239.95 48.962 1239.3 47.896 1238.35 47.117L1230.11 52.16ZM1238.97 46.789C1239.87 47.568 1240.53 48.593 1240.77 49.823L1245.12 47.158C1244.67 46.051 1244.01 45.067 1243.27 44.165L1238.97 46.789ZM1263.8 42.115V60.155C1266.55 58.474 1268.72 55.071 1268.72 51.135C1268.72 47.199 1266.55 43.796 1263.8 42.115ZM1258.02 39.778C1259.86 39.778 1261.59 40.229 1263.14 41.008V40.27H1263.8V41.377C1266.1 42.648 1267.86 44.944 1268.72 47.322V40.27H1269.38V62H1268.72V54.907C1267.9 57.244 1266.1 59.663 1263.8 60.934V62H1263.14V61.262C1261.59 62.041 1259.86 62.492 1258.02 62.492C1251.75 62.492 1246.66 57.408 1246.66 51.135C1246.66 44.862 1251.75 39.778 1258.02 39.778ZM1258.02 61.836C1259.86 61.836 1261.63 61.385 1263.14 60.565V53.841C1262.16 55.645 1260.23 56.916 1258.02 56.916C1254.82 56.916 1252.24 54.333 1252.24 51.135C1252.24 47.937 1254.82 45.354 1258.02 45.354C1260.23 45.354 1262.16 46.625 1263.14 48.47V41.746C1261.63 40.926 1259.86 40.434 1258.02 40.434C1252.12 40.434 1247.32 45.231 1247.32 51.135C1247.32 57.039 1252.12 61.836 1258.02 61.836ZM1258.02 56.26C1260.89 56.26 1263.14 53.964 1263.14 51.135C1263.14 48.306 1260.89 46.01 1258.02 46.01C1255.19 46.01 1252.89 48.306 1252.89 51.135C1252.89 53.964 1255.19 56.26 1258.02 56.26ZM1284.42 45.846V46.502H1283.23C1280.73 46.502 1278.6 48.634 1278.6 51.135C1278.6 53.636 1280.73 55.768 1283.23 55.768H1284.42V56.424H1283.23C1280.36 56.424 1277.94 54.005 1277.94 51.135C1277.94 48.265 1280.36 45.846 1283.23 45.846H1284.42ZM1284.42 40.926H1283.23C1277.62 40.926 1273.02 45.518 1273.02 51.135C1273.02 56.752 1277.62 61.344 1283.23 61.344H1284.42V62H1283.23C1277.25 62 1272.37 57.121 1272.37 51.135C1272.37 45.149 1277.25 40.27 1283.23 40.27H1284.42V40.926ZM1289.94 40.926H1286.7V40.27H1289.94V33.3H1290.6V40.27H1295.52V33.3H1296.17V40.27H1299.41V40.926H1296.17V45.846H1299.41V46.502H1296.17V62H1295.52V46.502H1290.6V62H1289.94V46.502H1286.7V45.846H1289.94V40.926ZM1295.52 40.926H1290.6V45.846H1295.52V40.926ZM1324.32 62H1323.66L1317.76 46.871V62H1317.1V39.532H1312.18V62H1311.53V33.3H1320.67C1325.92 33.3 1330.1 37.482 1330.1 42.73C1330.1 46.912 1328.01 49.372 1325.59 50.889L1329.89 62H1329.24L1325.06 51.217C1323.87 51.914 1322.19 52.529 1320.79 52.939L1324.32 62ZM1323.42 45.313L1325.34 50.274C1327.56 48.88 1329.44 46.584 1329.44 42.73C1329.44 37.81 1325.59 33.956 1320.67 33.956H1317.76V38.876H1320.67C1322.8 38.876 1324.52 40.598 1324.52 42.73C1324.52 43.714 1324.15 44.575 1323.42 45.313ZM1317.76 39.532V46.871L1319.32 46.543C1322.51 45.846 1323.87 44.493 1323.87 42.73C1323.87 40.926 1322.47 39.532 1320.67 39.532H1317.76ZM1312.18 33.956V38.876H1317.1V33.956H1312.18ZM1324.81 50.602L1322.92 45.764C1321.69 46.707 1320.26 47.035 1318.66 47.363L1320.55 52.283C1321.78 51.955 1323.79 51.217 1324.81 50.602ZM1342.94 62.492C1336.67 62.492 1331.59 57.408 1331.59 51.135C1331.59 44.862 1336.67 39.778 1342.94 39.778C1349.22 39.778 1354.3 44.862 1354.3 51.135C1354.3 57.408 1349.22 62.492 1342.94 62.492ZM1342.94 61.836C1348.85 61.836 1353.64 57.039 1353.64 51.135C1353.64 45.231 1348.85 40.434 1342.94 40.434C1337.04 40.434 1332.24 45.231 1332.24 51.135C1332.24 57.039 1337.04 61.836 1342.94 61.836ZM1342.94 56.916C1339.74 56.916 1337.16 54.333 1337.16 51.135C1337.16 47.937 1339.74 45.354 1342.94 45.354C1346.14 45.354 1348.72 47.937 1348.72 51.135C1348.72 54.333 1346.14 56.916 1342.94 56.916ZM1342.94 56.26C1345.77 56.26 1348.07 53.964 1348.07 51.135C1348.07 48.306 1345.77 46.01 1342.94 46.01C1340.11 46.01 1337.82 48.306 1337.82 51.135C1337.82 53.964 1340.11 56.26 1342.94 56.26ZM1376.75 40.27V62H1376.1V55.809C1375.2 58.146 1373.43 60.073 1371.18 61.18V62H1370.52V61.508C1369.37 61.959 1368.14 62.205 1366.83 62.205C1361.38 62.205 1356.91 57.736 1356.91 52.283V40.27H1357.57V52.283C1357.57 57.367 1361.75 61.549 1366.83 61.549C1368.14 61.549 1369.37 61.262 1370.52 60.77V54.579C1369.74 55.809 1368.39 56.629 1366.83 56.629C1364.45 56.629 1362.49 54.661 1362.49 52.283V40.27H1363.14V52.283C1363.14 54.292 1364.82 55.973 1366.83 55.973C1368.84 55.973 1370.52 54.292 1370.52 52.283V40.27H1371.18V60.442C1374.09 58.884 1376.1 55.809 1376.1 52.283V40.27H1376.75ZM1382.99 40.926H1379.75V40.27H1382.99V33.3H1383.65V40.27H1388.57V33.3H1389.22V40.27H1392.46V40.926H1389.22V45.846H1392.46V46.502H1389.22V62H1388.57V46.502H1383.65V62H1382.99V46.502H1379.75V45.846H1382.99V40.926ZM1388.57 40.926H1383.65V45.846H1388.57V40.926ZM1393.81 51.135C1393.81 44.862 1398.89 39.778 1405.16 39.778C1410.16 39.778 1414.39 42.976 1415.9 47.486L1402.58 55.563C1403.36 56.014 1404.22 56.26 1405.16 56.26C1407.21 56.26 1408.98 55.03 1409.8 53.308L1410.41 53.595C1409.51 55.563 1407.5 56.916 1405.16 56.916C1403.97 56.916 1402.87 56.547 1401.96 55.932L1397.54 58.638C1399.46 60.606 1402.17 61.836 1405.16 61.836C1409.43 61.836 1413.16 59.294 1414.88 55.645L1415.45 55.932C1413.65 59.827 1409.71 62.492 1405.16 62.492C1398.89 62.492 1393.81 57.408 1393.81 51.135ZM1394.46 51.135C1394.46 52.324 1394.67 53.431 1394.99 54.497L1399.42 51.791C1399.38 51.586 1399.38 51.34 1399.38 51.135C1399.38 47.937 1401.96 45.354 1405.16 45.354C1406.35 45.354 1407.5 45.723 1408.4 46.338L1412.79 43.673C1410.86 41.664 1408.16 40.434 1405.16 40.434C1399.26 40.434 1394.46 45.231 1394.46 51.135ZM1395.24 55.112C1395.69 56.219 1396.31 57.244 1397.09 58.146L1401.39 55.522C1400.49 54.743 1399.83 53.677 1399.55 52.488L1395.24 55.112ZM1400.04 51.135V51.422L1407.79 46.707C1407.01 46.256 1406.11 46.01 1405.16 46.01C1402.33 46.01 1400.04 48.306 1400.04 51.135ZM1400.12 52.16C1400.37 53.349 1401.06 54.415 1402.01 55.153L1410.21 50.151C1409.96 48.962 1409.3 47.896 1408.36 47.117L1400.12 52.16ZM1408.98 46.789C1409.88 47.568 1410.53 48.593 1410.78 49.823L1415.13 47.158C1414.67 46.051 1414.02 45.067 1413.28 44.165L1408.98 46.789ZM1423.47 62V42.689C1421.26 44.042 1418.55 46.83 1418.55 51.709V62H1417.9V40.27H1418.55V47.732C1419.58 44.903 1421.18 43.304 1423.47 41.951V40.27H1424.13V41.582C1425.77 40.762 1427.53 40.352 1429.26 40.352V41.008C1427.53 41.008 1425.73 41.459 1424.13 42.32V49.044C1425.07 47.199 1427.04 45.928 1429.26 45.928V46.584C1426.39 46.584 1424.13 48.88 1424.13 51.709V62H1423.47ZM1447.09 61.344H1457.95V62H1440.85V33.3H1457.95V33.956H1447.09V38.876H1457.95V39.532H1447.09V44.534H1455V45.19H1447.09V50.11H1455V50.766H1447.09V55.768H1457.95V56.424H1447.09V61.344ZM1441.51 39.532V44.534H1446.43V39.532H1441.51ZM1446.43 56.424H1441.51V61.344H1446.43V56.424ZM1446.43 33.956H1441.51V38.876H1446.43V33.956ZM1446.43 45.19H1441.51V50.11H1446.43V45.19ZM1441.51 50.766V55.768H1446.43V50.766H1441.51ZM1466.54 40.27L1470.11 45.682L1473.72 40.27H1474.54L1470.52 46.297L1473.31 50.52L1480.11 40.27H1480.93L1473.72 51.135L1480.93 62H1480.11L1473.31 51.75L1470.52 55.973L1474.54 62H1473.72L1470.15 56.588L1466.54 62H1465.72L1469.74 55.973L1466.91 51.75L1460.15 62H1459.33L1466.5 51.135L1459.33 40.27H1460.15L1466.91 50.52L1469.7 46.297L1465.72 40.27H1466.54ZM1470.11 55.358L1472.9 51.135L1470.11 46.912L1467.32 51.135L1470.11 55.358ZM1480.45 51.135C1480.45 44.862 1485.53 39.778 1491.81 39.778C1496.81 39.778 1501.03 42.976 1502.55 47.486L1489.22 55.563C1490 56.014 1490.86 56.26 1491.81 56.26C1493.86 56.26 1495.62 55.03 1496.44 53.308L1497.06 53.595C1496.15 55.563 1494.14 56.916 1491.81 56.916C1490.62 56.916 1489.51 56.547 1488.61 55.932L1484.18 58.638C1486.11 60.606 1488.81 61.836 1491.81 61.836C1496.07 61.836 1499.8 59.294 1501.52 55.645L1502.1 55.932C1500.29 59.827 1496.36 62.492 1491.81 62.492C1485.53 62.492 1480.45 57.408 1480.45 51.135ZM1481.11 51.135C1481.11 52.324 1481.31 53.431 1481.64 54.497L1486.07 51.791C1486.03 51.586 1486.03 51.34 1486.03 51.135C1486.03 47.937 1488.61 45.354 1491.81 45.354C1493 45.354 1494.14 45.723 1495.05 46.338L1499.43 43.673C1497.51 41.664 1494.8 40.434 1491.81 40.434C1485.9 40.434 1481.11 45.231 1481.11 51.135ZM1481.89 55.112C1482.34 56.219 1482.95 57.244 1483.73 58.146L1488.04 55.522C1487.13 54.743 1486.48 53.677 1486.19 52.488L1481.89 55.112ZM1486.68 51.135V51.422L1494.43 46.707C1493.65 46.256 1492.75 46.01 1491.81 46.01C1488.98 46.01 1486.68 48.306 1486.68 51.135ZM1486.76 52.16C1487.01 53.349 1487.71 54.415 1488.65 55.153L1496.85 50.151C1496.6 48.962 1495.95 47.896 1495.01 47.117L1486.76 52.16ZM1495.62 46.789C1496.52 47.568 1497.18 48.593 1497.42 49.823L1501.77 47.158C1501.32 46.051 1500.66 45.067 1499.93 44.165L1495.62 46.789ZM1510.12 62V42.689C1507.9 44.042 1505.2 46.83 1505.2 51.709V62H1504.54V40.27H1505.2V47.732C1506.22 44.903 1507.82 43.304 1510.12 41.951V40.27H1510.77V41.582C1512.41 40.762 1514.18 40.352 1515.9 40.352V41.008C1514.18 41.008 1512.37 41.459 1510.77 42.32V49.044C1511.72 47.199 1513.69 45.928 1515.9 45.928V46.584C1513.03 46.584 1510.77 48.88 1510.77 51.709V62H1510.12ZM1528.78 45.846V46.502H1527.59C1525.09 46.502 1522.96 48.634 1522.96 51.135C1522.96 53.636 1525.09 55.768 1527.59 55.768H1528.78V56.424H1527.59C1524.72 56.424 1522.3 54.005 1522.3 51.135C1522.3 48.265 1524.72 45.846 1527.59 45.846H1528.78ZM1528.78 40.926H1527.59C1521.97 40.926 1517.38 45.518 1517.38 51.135C1517.38 56.752 1521.97 61.344 1527.59 61.344H1528.78V62H1527.59C1521.61 62 1516.73 57.121 1516.73 51.135C1516.73 45.149 1521.61 40.27 1527.59 40.27H1528.78V40.926ZM1532.25 62V40.27H1532.91V62H1532.25ZM1538.48 40.27V62H1537.83V40.27H1538.48ZM1537.83 38.138V31.25H1538.48V38.138H1537.83ZM1532.91 31.25V38.138H1532.25V31.25H1532.91ZM1541.68 46.953C1541.68 42.976 1544.87 39.778 1548.85 39.778C1551.8 39.778 1554.34 41.582 1555.45 44.124L1554.84 44.411C1553.85 42.074 1551.52 40.434 1548.85 40.434C1545.24 40.434 1542.33 43.345 1542.33 46.953C1542.33 50.028 1544.42 52.57 1547.29 53.308L1549.1 53.759C1549.79 53.923 1550.29 54.579 1550.29 55.317C1550.29 56.219 1549.59 56.916 1548.69 56.916C1547.99 56.916 1547.42 56.506 1547.17 55.85L1547.78 55.604C1547.91 55.973 1548.24 56.26 1548.69 56.26C1549.22 56.26 1549.63 55.85 1549.63 55.317C1549.63 54.866 1549.38 54.497 1548.93 54.374L1547.09 53.923C1543.97 53.144 1541.68 50.315 1541.68 46.953ZM1542.09 58.187L1542.7 57.9C1543.68 60.237 1545.98 61.836 1548.69 61.836C1552.29 61.836 1555.21 58.925 1555.21 55.317C1555.21 52.242 1553.11 49.7 1550.24 48.962L1548.44 48.511C1547.7 48.306 1547.25 47.691 1547.25 46.953C1547.25 46.051 1547.95 45.354 1548.85 45.354C1549.55 45.354 1550.12 45.805 1550.33 46.42L1549.75 46.666C1549.63 46.297 1549.26 46.01 1548.85 46.01C1548.32 46.01 1547.91 46.42 1547.91 46.953C1547.91 47.404 1548.15 47.773 1548.6 47.896L1550.45 48.347C1553.61 49.126 1555.86 51.955 1555.86 55.317C1555.86 59.294 1552.66 62.492 1548.69 62.492C1545.73 62.492 1543.19 60.729 1542.09 58.187ZM1557.85 51.135C1557.85 44.862 1562.93 39.778 1569.2 39.778C1574.2 39.778 1578.43 42.976 1579.94 47.486L1566.62 55.563C1567.4 56.014 1568.26 56.26 1569.2 56.26C1571.25 56.26 1573.02 55.03 1573.84 53.308L1574.45 53.595C1573.55 55.563 1571.54 56.916 1569.2 56.916C1568.01 56.916 1566.91 56.547 1566 55.932L1561.58 58.638C1563.5 60.606 1566.21 61.836 1569.2 61.836C1573.47 61.836 1577.2 59.294 1578.92 55.645L1579.49 55.932C1577.69 59.827 1573.75 62.492 1569.2 62.492C1562.93 62.492 1557.85 57.408 1557.85 51.135ZM1558.5 51.135C1558.5 52.324 1558.71 53.431 1559.03 54.497L1563.46 51.791C1563.42 51.586 1563.42 51.34 1563.42 51.135C1563.42 47.937 1566 45.354 1569.2 45.354C1570.39 45.354 1571.54 45.723 1572.44 46.338L1576.83 43.673C1574.9 41.664 1572.2 40.434 1569.2 40.434C1563.3 40.434 1558.5 45.231 1558.5 51.135ZM1559.28 55.112C1559.73 56.219 1560.35 57.244 1561.13 58.146L1565.43 55.522C1564.53 54.743 1563.87 53.677 1563.59 52.488L1559.28 55.112ZM1564.08 51.135V51.422L1571.83 46.707C1571.05 46.256 1570.15 46.01 1569.2 46.01C1566.37 46.01 1564.08 48.306 1564.08 51.135ZM1564.16 52.16C1564.41 53.349 1565.1 54.415 1566.05 55.153L1574.25 50.151C1574 48.962 1573.34 47.896 1572.4 47.117L1564.16 52.16ZM1573.02 46.789C1573.92 47.568 1574.57 48.593 1574.82 49.823L1579.17 47.158C1578.71 46.051 1578.06 45.067 1577.32 44.165L1573.02 46.789ZM1601.21 45.764H1590.34V45.108H1601.21V45.764ZM1601.21 51.34H1590.34V50.684H1601.21V51.34ZM1627.13 62H1626.48L1620.57 46.871V62H1619.92V39.532H1615V62H1614.34V33.3H1623.49C1628.73 33.3 1632.92 37.482 1632.92 42.73C1632.92 46.912 1630.82 49.372 1628.41 50.889L1632.71 62H1632.05L1627.87 51.217C1626.68 51.914 1625 52.529 1623.61 52.939L1627.13 62ZM1626.23 45.313L1628.16 50.274C1630.37 48.88 1632.26 46.584 1632.26 42.73C1632.26 37.81 1628.41 33.956 1623.49 33.956H1620.57V38.876H1623.49C1625.62 38.876 1627.34 40.598 1627.34 42.73C1627.34 43.714 1626.97 44.575 1626.23 45.313ZM1620.57 39.532V46.871L1622.13 46.543C1625.33 45.846 1626.68 44.493 1626.68 42.73C1626.68 40.926 1625.29 39.532 1623.49 39.532H1620.57ZM1615 33.956V38.876H1619.92V33.956H1615ZM1627.63 50.602L1625.74 45.764C1624.51 46.707 1623.08 47.035 1621.48 47.363L1623.36 52.283C1624.59 51.955 1626.6 51.217 1627.63 50.602ZM1645.76 62.492C1639.48 62.492 1634.4 57.408 1634.4 51.135C1634.4 44.862 1639.48 39.778 1645.76 39.778C1652.03 39.778 1657.11 44.862 1657.11 51.135C1657.11 57.408 1652.03 62.492 1645.76 62.492ZM1645.76 61.836C1651.66 61.836 1656.46 57.039 1656.46 51.135C1656.46 45.231 1651.66 40.434 1645.76 40.434C1639.85 40.434 1635.06 45.231 1635.06 51.135C1635.06 57.039 1639.85 61.836 1645.76 61.836ZM1645.76 56.916C1642.56 56.916 1639.98 54.333 1639.98 51.135C1639.98 47.937 1642.56 45.354 1645.76 45.354C1648.96 45.354 1651.54 47.937 1651.54 51.135C1651.54 54.333 1648.96 56.916 1645.76 56.916ZM1645.76 56.26C1648.59 56.26 1650.88 53.964 1650.88 51.135C1650.88 48.306 1648.59 46.01 1645.76 46.01C1642.93 46.01 1640.63 48.306 1640.63 51.135C1640.63 53.964 1642.93 56.26 1645.76 56.26ZM1660.71 31.25V62H1660.05V31.25H1660.71ZM1666.29 31.25V62H1665.63V31.25H1666.29ZM1671.12 31.25V62H1670.46V31.25H1671.12ZM1676.7 31.25V62H1676.04V31.25H1676.7ZM1680.87 62V40.27H1681.53V62H1680.87ZM1687.11 40.27V62H1686.45V40.27H1687.11ZM1686.45 38.138V31.25H1687.11V38.138H1686.45ZM1681.53 31.25V38.138H1680.87V31.25H1681.53ZM1691.28 62V40.27H1691.94V46.461C1692.84 44.124 1694.61 42.197 1696.86 41.09V40.27H1697.52V40.762C1698.66 40.311 1699.89 40.065 1701.21 40.065C1706.66 40.065 1711.13 44.534 1711.13 49.987V62H1710.47V49.987C1710.47 44.903 1706.29 40.721 1701.21 40.721C1699.89 40.721 1698.66 41.008 1697.52 41.5V47.691C1698.3 46.461 1699.65 45.641 1701.21 45.641C1703.58 45.641 1705.55 47.609 1705.55 49.987V62H1704.9V49.987C1704.9 47.978 1703.22 46.297 1701.21 46.297C1699.2 46.297 1697.52 47.978 1697.52 49.987V62H1696.86V41.828C1693.95 43.386 1691.94 46.461 1691.94 49.987V62H1691.28ZM1713.8 51.135C1713.8 44.862 1718.88 39.778 1725.16 39.778C1727 39.778 1728.72 40.229 1730.28 41.008V40.27H1730.94V41.377C1733.23 42.648 1735 44.944 1735.86 47.322V40.27H1736.51V60.155C1736.51 66.428 1731.47 71.512 1725.16 71.512C1721.26 71.512 1717.82 69.503 1715.73 66.51L1716.3 66.182C1718.27 69.011 1721.51 70.856 1725.16 70.856C1731.14 70.856 1735.86 66.1 1735.86 60.155V54.907C1735.04 57.285 1733.19 59.663 1730.85 60.934C1730.44 63.722 1728.11 65.936 1725.16 65.936C1723.31 65.936 1721.63 65.034 1720.56 63.722L1721.14 63.394C1722.04 64.501 1723.56 65.28 1725.16 65.28C1727.62 65.28 1729.62 63.599 1730.16 61.344C1728.64 62.041 1726.92 62.492 1725.16 62.492C1718.88 62.492 1713.8 57.408 1713.8 51.135ZM1714.45 51.135C1714.45 57.039 1719.25 61.836 1725.16 61.836C1727 61.836 1728.72 61.385 1730.24 60.565C1730.28 60.278 1730.28 59.745 1730.28 59.212V53.841C1729.3 55.645 1727.37 56.916 1725.16 56.916C1721.96 56.916 1719.37 54.333 1719.37 51.135C1719.37 47.937 1721.96 45.354 1725.16 45.354C1727.37 45.354 1729.3 46.625 1730.28 48.47V41.746C1728.76 40.926 1727 40.434 1725.16 40.434C1719.25 40.434 1714.45 45.231 1714.45 51.135ZM1720.03 51.135C1720.03 53.964 1722.33 56.26 1725.16 56.26C1728.03 56.26 1730.28 53.964 1730.28 51.135C1730.28 48.306 1728.03 46.01 1725.16 46.01C1722.33 46.01 1720.03 48.306 1720.03 51.135ZM1730.94 42.115V60.155C1733.68 58.474 1735.86 55.071 1735.86 51.135C1735.86 47.199 1733.68 43.796 1730.94 42.115ZM1748.56 41.746C1748.56 36.826 1752.58 32.849 1757.67 32.849C1761.6 32.849 1764.92 35.268 1766.19 38.671L1765.62 38.917C1764.43 35.719 1761.32 33.423 1757.67 33.464C1752.99 33.505 1749.18 37.154 1749.22 41.746C1749.26 45.6 1751.89 48.88 1755.53 49.7L1758.49 50.356C1759.96 50.684 1761.07 52.037 1761.07 53.554C1761.07 55.399 1759.51 56.875 1757.54 56.875C1755.86 56.875 1754.47 55.768 1754.1 54.292L1754.71 54.005C1754.96 55.276 1756.11 56.301 1757.54 56.26C1759.14 56.219 1760.37 55.03 1760.41 53.554C1760.45 52.324 1759.55 51.258 1758.28 50.971L1755.41 50.356C1751.39 49.495 1748.56 45.887 1748.56 41.746ZM1748.97 56.629L1749.59 56.342C1750.74 59.581 1753.85 61.877 1757.54 61.836C1762.22 61.795 1766.03 58.146 1765.99 53.554C1765.95 49.7 1763.32 46.42 1759.68 45.6L1756.72 44.944C1755.25 44.616 1754.14 43.263 1754.14 41.746C1754.14 39.901 1755.7 38.425 1757.67 38.425C1759.35 38.425 1760.74 39.491 1761.07 40.967L1760.5 41.254C1760.25 39.983 1759.06 38.999 1757.67 39.04C1756.07 39.081 1754.84 40.27 1754.8 41.746C1754.76 42.976 1755.66 44.042 1756.93 44.329L1759.8 44.944C1763.82 45.805 1766.65 49.413 1766.65 53.554C1766.65 58.474 1762.63 62.451 1757.54 62.451C1753.57 62.451 1750.25 60.032 1748.97 56.629ZM1771.45 40.926H1768.21V40.27H1771.45V33.3H1772.11V40.27H1777.03V33.3H1777.68V40.27H1780.92V40.926H1777.68V45.846H1780.92V46.502H1777.68V62H1777.03V46.502H1772.11V62H1771.45V46.502H1768.21V45.846H1771.45V40.926ZM1777.03 40.926H1772.11V45.846H1777.03V40.926ZM1793.62 62.492C1787.35 62.492 1782.26 57.408 1782.26 51.135C1782.26 44.862 1787.35 39.778 1793.62 39.778C1799.89 39.778 1804.98 44.862 1804.98 51.135C1804.98 57.408 1799.89 62.492 1793.62 62.492ZM1793.62 61.836C1799.53 61.836 1804.32 57.039 1804.32 51.135C1804.32 45.231 1799.53 40.434 1793.62 40.434C1787.72 40.434 1782.92 45.231 1782.92 51.135C1782.92 57.039 1787.72 61.836 1793.62 61.836ZM1793.62 56.916C1790.42 56.916 1787.84 54.333 1787.84 51.135C1787.84 47.937 1790.42 45.354 1793.62 45.354C1796.82 45.354 1799.4 47.937 1799.4 51.135C1799.4 54.333 1796.82 56.916 1793.62 56.916ZM1793.62 56.26C1796.45 56.26 1798.75 53.964 1798.75 51.135C1798.75 48.306 1796.45 46.01 1793.62 46.01C1790.79 46.01 1788.5 48.306 1788.5 51.135C1788.5 53.964 1790.79 56.26 1793.62 56.26ZM1807.92 62V40.27H1808.57V46.461C1809.48 44.124 1811.24 42.197 1813.49 41.09V40.27H1814.15V40.762C1815.3 40.311 1816.53 40.065 1817.84 40.065C1823.29 40.065 1827.76 44.534 1827.76 49.987V62H1827.11V49.987C1827.11 44.903 1822.92 40.721 1817.84 40.721C1816.53 40.721 1815.3 41.008 1814.15 41.5V47.691C1814.93 46.461 1816.28 45.641 1817.84 45.641C1820.22 45.641 1822.19 47.609 1822.19 49.987V62H1821.53V49.987C1821.53 47.978 1819.85 46.297 1817.84 46.297C1815.83 46.297 1814.15 47.978 1814.15 49.987V62H1813.49V41.828C1810.58 43.386 1808.57 46.461 1808.57 49.987V62H1807.92ZM1830.39 51.135C1830.39 44.862 1835.48 39.778 1841.75 39.778C1846.75 39.778 1850.97 42.976 1852.49 47.486L1839.17 55.563C1839.94 56.014 1840.81 56.26 1841.75 56.26C1843.8 56.26 1845.56 55.03 1846.38 53.308L1847 53.595C1846.09 55.563 1844.09 56.916 1841.75 56.916C1840.56 56.916 1839.45 56.547 1838.55 55.932L1834.12 58.638C1836.05 60.606 1838.76 61.836 1841.75 61.836C1846.01 61.836 1849.74 59.294 1851.47 55.645L1852.04 55.932C1850.24 59.827 1846.3 62.492 1841.75 62.492C1835.48 62.492 1830.39 57.408 1830.39 51.135ZM1831.05 51.135C1831.05 52.324 1831.25 53.431 1831.58 54.497L1836.01 51.791C1835.97 51.586 1835.97 51.34 1835.97 51.135C1835.97 47.937 1838.55 45.354 1841.75 45.354C1842.94 45.354 1844.09 45.723 1844.99 46.338L1849.37 43.673C1847.45 41.664 1844.74 40.434 1841.75 40.434C1835.84 40.434 1831.05 45.231 1831.05 51.135ZM1831.83 55.112C1832.28 56.219 1832.89 57.244 1833.67 58.146L1837.98 55.522C1837.07 54.743 1836.42 53.677 1836.13 52.488L1831.83 55.112ZM1836.62 51.135V51.422L1844.37 46.707C1843.59 46.256 1842.69 46.01 1841.75 46.01C1838.92 46.01 1836.62 48.306 1836.62 51.135ZM1836.71 52.16C1836.95 53.349 1837.65 54.415 1838.59 55.153L1846.79 50.151C1846.55 48.962 1845.89 47.896 1844.95 47.117L1836.71 52.16ZM1845.56 46.789C1846.46 47.568 1847.12 48.593 1847.37 49.823L1851.71 47.158C1851.26 46.051 1850.6 45.067 1849.87 44.165L1845.56 46.789ZM1853.5 46.953C1853.5 42.976 1856.7 39.778 1860.68 39.778C1863.63 39.778 1866.17 41.582 1867.28 44.124L1866.66 44.411C1865.68 42.074 1863.34 40.434 1860.68 40.434C1857.07 40.434 1854.16 43.345 1854.16 46.953C1854.16 50.028 1856.25 52.57 1859.12 53.308L1860.92 53.759C1861.62 53.923 1862.11 54.579 1862.11 55.317C1862.11 56.219 1861.41 56.916 1860.51 56.916C1859.81 56.916 1859.24 56.506 1858.99 55.85L1859.61 55.604C1859.73 55.973 1860.06 56.26 1860.51 56.26C1861.04 56.26 1861.45 55.85 1861.45 55.317C1861.45 54.866 1861.21 54.497 1860.76 54.374L1858.91 53.923C1855.8 53.144 1853.5 50.315 1853.5 46.953ZM1853.91 58.187L1854.53 57.9C1855.51 60.237 1857.81 61.836 1860.51 61.836C1864.12 61.836 1867.03 58.925 1867.03 55.317C1867.03 52.242 1864.94 49.7 1862.07 48.962L1860.27 48.511C1859.53 48.306 1859.08 47.691 1859.08 46.953C1859.08 46.051 1859.77 45.354 1860.68 45.354C1861.37 45.354 1861.95 45.805 1862.15 46.42L1861.58 46.666C1861.45 46.297 1861.09 46.01 1860.68 46.01C1860.14 46.01 1859.73 46.42 1859.73 46.953C1859.73 47.404 1859.98 47.773 1860.43 47.896L1862.27 48.347C1865.43 49.126 1867.69 51.955 1867.69 55.317C1867.69 59.294 1864.49 62.492 1860.51 62.492C1857.56 62.492 1855.02 60.729 1853.91 58.187ZM1886.15 48.962H1886.4C1888.57 48.962 1890.37 50.766 1890.37 52.939C1890.37 55.112 1888.57 56.916 1886.4 56.916C1884.84 56.916 1883.49 56.096 1882.71 54.825L1883.2 54.456C1883.81 55.563 1885.04 56.26 1886.4 56.26C1888.24 56.26 1889.72 54.784 1889.72 52.939C1889.72 51.094 1888.24 49.618 1886.4 49.618H1879.92V33.3H1893.86V33.956H1886.15V38.876H1893.86V39.532H1886.15V43.386H1886.4C1891.64 43.386 1895.95 47.691 1895.95 52.939C1895.95 58.187 1891.64 62.492 1886.4 62.492C1883.03 62.492 1880 60.77 1878.24 58.228L1878.77 57.818C1880.45 60.196 1883.28 61.836 1886.4 61.836C1891.32 61.836 1895.29 57.859 1895.29 52.939C1895.29 48.019 1891.32 44.042 1886.4 44.042H1886.15V48.962ZM1880.57 39.532V43.386H1885.49V39.532H1880.57ZM1880.57 48.962H1885.49V44.042H1880.57V48.962ZM1880.57 33.956V38.876H1885.49V33.956H1880.57ZM1898.6 51.873V43.427C1898.6 37.564 1903.35 32.808 1909.21 32.808C1915.08 32.808 1919.83 37.564 1919.83 43.427V51.873C1919.83 57.736 1915.08 62.492 1909.21 62.492C1903.35 62.492 1898.6 57.736 1898.6 51.873ZM1899.25 43.427V51.873C1899.25 57.326 1903.76 61.836 1909.21 61.836C1914.67 61.836 1919.18 57.326 1919.18 51.873V43.427C1919.18 37.974 1914.67 33.464 1909.21 33.464C1903.76 33.464 1899.25 37.974 1899.25 43.427ZM1904.17 51.873V43.427C1904.17 40.68 1906.47 38.384 1909.21 38.384C1911.96 38.384 1914.26 40.68 1914.26 43.427V51.873C1914.26 54.62 1911.96 56.916 1909.21 56.916C1906.47 56.916 1904.17 54.62 1904.17 51.873ZM1904.83 43.427V51.873C1904.83 54.251 1906.84 56.26 1909.21 56.26C1911.59 56.26 1913.6 54.251 1913.6 51.873V43.427C1913.6 41.049 1911.59 39.04 1909.21 39.04C1906.84 39.04 1904.83 41.049 1904.83 43.427ZM1923.02 51.873V43.427C1923.02 37.564 1927.78 32.808 1933.64 32.808C1939.5 32.808 1944.26 37.564 1944.26 43.427V51.873C1944.26 57.736 1939.5 62.492 1933.64 62.492C1927.78 62.492 1923.02 57.736 1923.02 51.873ZM1923.68 43.427V51.873C1923.68 57.326 1928.19 61.836 1933.64 61.836C1939.09 61.836 1943.6 57.326 1943.6 51.873V43.427C1943.6 37.974 1939.09 33.464 1933.64 33.464C1928.19 33.464 1923.68 37.974 1923.68 43.427ZM1928.6 51.873V43.427C1928.6 40.68 1930.89 38.384 1933.64 38.384C1936.39 38.384 1938.68 40.68 1938.68 43.427V51.873C1938.68 54.62 1936.39 56.916 1933.64 56.916C1930.89 56.916 1928.6 54.62 1928.6 51.873ZM1929.25 43.427V51.873C1929.25 54.251 1931.26 56.26 1933.64 56.26C1936.02 56.26 1938.03 54.251 1938.03 51.873V43.427C1938.03 41.049 1936.02 39.04 1933.64 39.04C1931.26 39.04 1929.25 41.049 1929.25 43.427Z" fill="white"/>
</g>
<defs>
<clipPath id="clip0_443_857">
<rect width="1940" height="343" fill="white"/>
</clipPath>
</defs>
</svg>
